ffmpeg started on 2026-01-09 at 19:35:19
Report written to "D:\Convert\FFMetrics\reports\ssim_report-6.txt"
Log level: 32
Command line:
ffmpeg -hide_banner -nostdin -r 24000/1001 -i "F:\\\xc0\xed\xe8\xec\xe5\\\xce\xed\xe3\xee\xe8\xed\xe3\xe8\\!_37_\xc7\xe8\xec\xe0_2025\\JamClub\\\xc4\xee\xea\xf2\xee\xf0 \xd1\xf2\xee\xf3\xed\\\xd2\xc2-4\\JamClub_Dr_Stone_Science_Future_03_1080p_HEVC(68).mkv" -r 24000/1001 -i "F:\\\xc0\xed\xe8\xec\xe5\\\xce\xed\xe3\xee\xe8\xed\xe3\xe8\\!_37_\xc7\xe8\xec\xe0_2025\\JamClub\\\xc4\xee\xea\xf2\xee\xf0 \xd1\xf2\xee\xf3\xed\\\xd2\xc2-4\\JamClub_Dr_Stone_Science_Future_03_1080p.mp4" -lavfi "[0:v]settb=AVTB,setpts=PTS-STARTPTS,format=pix_fmts=yuv420p10le,fps=24000/1001,scale=1920:1080:flags=bicubic:out_range=limited:out_color_matrix=bt709:out_chroma_loc=left[main];[1:v]settb=AVTB,setpts=PTS-STARTPTS,format=pix_fmts=yuv420p,fps=24000/1001,scale=1920:1080:flags=bicubic:out_range=limited:out_color_matrix=bt709:out_chroma_loc=left[ref];[main][ref]ssim=eof_action=endall:stats_file='D\\:/Convert/FFMetrics/logs/ssim_logfile-6.txt'" -f null -
Input #0, matroska,webm, from 'F:\Аниме\Онгоинги\!_37_Зима_2025\JamClub\Доктор Стоун\ТВ-4\JamClub_Dr_Stone_Science_Future_03_1080p_HEVC(68).mkv':
  Metadata:
    COMPATIBLE_BRANDS: mp42mp41
    MAJOR_BRAND     : mp42
    MINOR_VERSION   : 0
    ENCODER         : Lavf61.7.100
  Duration: 00:24:22.17, start: -0.021000, bitrate: 1802 kb/s
  Stream #0:0(eng): Video: hevc (Main 10), yuv420p10le(tv, bt709/unknown/unknown, progressive), 1920x1080 [SAR 1:1 DAR 16:9], 23.98 fps, 23.98 tbr, 1k tbn (default)
      Metadata:
        HANDLER_NAME    : Mainconcept Video Media Handler
        VENDOR_ID       : [0][0][0][0]
        ENCODER         : Lavc61.19.100 libx265
        BPS             : 1604858
        DURATION        : 00:24:22.127708333
        NUMBER_OF_FRAMES: 35056
        NUMBER_OF_BYTES : 293313452
        _STATISTICS_WRITING_APP: mkvpropedit v94.0 ('Initiate') 64-bit
        _STATISTICS_WRITING_DATE_UTC: 2026-01-09 16:01:14
        _STATISTICS_TAGS: BPS DURATION NUMBER_OF_FRAMES NUMBER_OF_BYTES
  Stream #0:1(eng): Audio: aac (LC), 48000 Hz, stereo, fltp (default)
      Metadata:
        HANDLER_NAME    : #Mainconcept MP4 Sound Media Handler
        VENDOR_ID       : [0][0][0][0]
        ENCODER         : Lavc61.19.100 aac
        BPS             : 193637
        DURATION        : 00:24:22.144000000
        NUMBER_OF_FRAMES: 68539
        NUMBER_OF_BYTES : 35390813
        _STATISTICS_WRITING_APP: mkvpropedit v94.0 ('Initiate') 64-bit
        _STATISTICS_WRITING_DATE_UTC: 2026-01-09 16:01:14
        _STATISTICS_TAGS: BPS DURATION NUMBER_OF_FRAMES NUMBER_OF_BYTES
Input #1, mov,mp4,m4a,3gp,3g2,mj2, from 'F:\Аниме\Онгоинги\!_37_Зима_2025\JamClub\Доктор Стоун\ТВ-4\JamClub_Dr_Stone_Science_Future_03_1080p.mp4':
  Metadata:
    major_brand     : mp42
    minor_version   : 0
    compatible_brands: mp42mp41
    creation_time   : 2025-02-16T13:45:21.000000Z
  Duration: 00:24:22.13, start: 0.000000, bitrate: 5181 kb/s
  Stream #1:0[0x1](eng): Video: h264 (Main) (avc1 / 0x31637661), yuv420p(progressive), 1920x1080 [SAR 1:1 DAR 16:9], 4861 kb/s, 23.98 fps, 23.98 tbr, 24k tbn (default)
      Metadata:
        creation_time   : 2025-02-16T13:45:21.000000Z
        handler_name    : Mainconcept Video Media Handler
        vendor_id       : [0][0][0][0]
        encoder         : AVC Coding
  Stream #1:1[0x2](eng): Audio: aac (LC) (mp4a / 0x6134706D), 48000 Hz, stereo, fltp, 317 kb/s (default)
      Metadata:
        creation_time   : 2025-02-16T13:45:21.000000Z
        handler_name    : #Mainconcept MP4 Sound Media Handler
        vendor_id       : [0][0][0][0]
Stream mapping:
  Stream #0:0 (hevc) -> settb:default
  Stream #1:0 (h264) -> settb:default
  ssim:default -> Stream #0:0 (wrapped_avframe)
  Stream #0:1 -> #0:1 (aac (native) -> pcm_s16le (native))
[swscaler @ 000001b59024ce80] No accelerated colorspace conversion found from yuv420p to bgr48le.
[swscaler @ 000001b5903c2480] No accelerated colorspace conversion found from yuv420p to bgr48le.
[swscaler @ 000001b588ee8a00] No accelerated colorspace conversion found from yuv420p to bgr48le.
[swscaler @ 000001b59071db00] No accelerated colorspace conversion found from yuv420p to bgr48le.
[swscaler @ 000001b589250080] No accelerated colorspace conversion found from yuv420p to bgr48le.
[swscaler @ 000001b58926e080] No accelerated colorspace conversion found from yuv420p to bgr48le.
[swscaler @ 000001b5908e1f00] No accelerated colorspace conversion found from yuv420p to bgr48le.
[swscaler @ 000001b5946bb180] No accelerated colorspace conversion found from yuv420p to bgr48le.
[swscaler @ 000001b58b5e7800] No accelerated colorspace conversion found from yuv420p to bgr48le.
[swscaler @ 000001b58b6117c0] No accelerated colorspace conversion found from yuv420p to bgr48le.
[swscaler @ 000001b59495a540] No accelerated colorspace conversion found from yuv420p to bgr48le.
[swscaler @ 000001b594b55040] No accelerated colorspace conversion found from yuv420p to bgr48le.
[swscaler @ 000001b588f04840] No accelerated colorspace conversion found from yuv420p to bgr48le.
[swscaler @ 000001b594c40040] No accelerated colorspace conversion found from yuv420p to bgr48le.
[swscaler @ 000001b594cdd040] No accelerated colorspace conversion found from yuv420p to bgr48le.
[swscaler @ 000001b594d7a040] No accelerated colorspace conversion found from yuv420p to bgr48le.
Output #0, null, to 'pipe:':
  Metadata:
    COMPATIBLE_BRANDS: mp42mp41
    MAJOR_BRAND     : mp42
    MINOR_VERSION   : 0
    encoder         : Lavf61.7.100
  Stream #0:0: Video: wrapped_avframe, yuv420p10le(tv, bt709/unknown/unknown, progressive), 1920x1080 [SAR 1:1 DAR 16:9], q=2-31, 200 kb/s, 23.98 fps, 23.98 tbn
      Metadata:
        encoder         : Lavc61.19.100 wrapped_avframe
  Stream #0:1(eng): Audio: pcm_s16le, 48000 Hz, stereo, s16, 1536 kb/s (default)
      Metadata:
        HANDLER_NAME    : #Mainconcept MP4 Sound Media Handler
        VENDOR_ID       : [0][0][0][0]
        _STATISTICS_TAGS: BPS DURATION NUMBER_OF_FRAMES NUMBER_OF_BYTES
        BPS             : 193637
        DURATION        : 00:24:22.144000000
        NUMBER_OF_FRAMES: 68539
        NUMBER_OF_BYTES : 35390813
        _STATISTICS_WRITING_APP: mkvpropedit v94.0 ('Initiate') 64-bit
        _STATISTICS_WRITING_DATE_UTC: 2026-01-09 16:01:14
        encoder         : Lavc61.19.100 pcm_s16le
frame=   27 fps=0.0 q=-0.0 size=N/A time=00:00:01.12 bitrate=N/A speed= 2.2x    frame=   59 fps= 57 q=-0.0 size=N/A time=00:00:02.46 bitrate=N/A speed=2.37x    frame=   94 fps= 61 q=-0.0 size=N/A time=00:00:03.92 bitrate=N/A speed=2.53x    frame=  133 fps= 65 q=-0.0 size=N/A time=00:00:05.54 bitrate=N/A speed=2.69x    frame=  169 fps= 65 q=-0.0 size=N/A time=00:00:07.04 bitrate=N/A speed=2.73x    frame=  207 fps= 67 q=-0.0 size=N/A time=00:00:08.63 bitrate=N/A speed=2.79x    frame=  243 fps= 67 q=-0.0 size=N/A time=00:00:10.13 bitrate=N/A speed=2.81x    frame=  282 fps= 68 q=-0.0 size=N/A time=00:00:11.76 bitrate=N/A speed=2.85x    frame=  314 fps= 68 q=-0.0 size=N/A time=00:00:13.09 bitrate=N/A speed=2.82x    frame=  355 fps= 69 q=-0.0 size=N/A time=00:00:14.80 bitrate=N/A speed=2.87x    frame=  393 fps= 69 q=-0.0 size=N/A time=00:00:16.39 bitrate=N/A speed=2.89x    frame=  430 fps= 69 q=-0.0 size=N/A time=00:00:17.93 bitrate=N/A speed= 2.9x    frame=  466 fps= 70 q=-0.0 size=N/A time=00:00:19.43 bitrate=N/A speed= 2.9x    frame=  505 fps= 70 q=-0.0 size=N/A time=00:00:21.06 bitrate=N/A speed=2.91x    frame=  536 fps= 69 q=-0.0 size=N/A time=00:00:22.35 bitrate=N/A speed=2.89x    frame=  573 fps= 69 q=-0.0 size=N/A time=00:00:23.89 bitrate=N/A speed= 2.9x    frame=  619 fps= 71 q=-0.0 size=N/A time=00:00:25.81 bitrate=N/A speed=2.94x    frame=  655 fps= 71 q=-0.0 size=N/A time=00:00:27.31 bitrate=N/A speed=2.94x    frame=  693 fps= 71 q=-0.0 size=N/A time=00:00:28.90 bitrate=N/A speed=2.95x    frame=  730 fps= 71 q=-0.0 size=N/A time=00:00:30.44 bitrate=N/A speed=2.95x    frame=  767 fps= 71 q=-0.0 size=N/A time=00:00:31.99 bitrate=N/A speed=2.95x    frame=  797 fps= 70 q=-0.0 size=N/A time=00:00:33.24 bitrate=N/A speed=2.93x    frame=  843 fps= 71 q=-0.0 size=N/A time=00:00:35.16 bitrate=N/A speed=2.96x    frame=  879 fps= 71 q=-0.0 size=N/A time=00:00:36.66 bitrate=N/A speed=2.96x    frame=  916 fps= 71 q=-0.0 size=N/A time=00:00:38.20 bitrate=N/A speed=2.96x    frame=  954 fps= 71 q=-0.0 size=N/A time=00:00:39.78 bitrate=N/A speed=2.96x    frame=  990 fps= 71 q=-0.0 size=N/A time=00:00:41.29 bitrate=N/A speed=2.96x    frame= 1018 fps= 70 q=-0.0 size=N/A time=00:00:42.45 bitrate=N/A speed=2.94x    frame= 1068 fps= 71 q=-0.0 size=N/A time=00:00:44.54 bitrate=N/A speed=2.97x    frame= 1102 fps= 71 q=-0.0 size=N/A time=00:00:45.96 bitrate=N/A speed=2.97x    frame= 1136 fps= 71 q=-0.0 size=N/A time=00:00:47.38 bitrate=N/A speed=2.96x    frame= 1181 fps= 71 q=-0.0 size=N/A time=00:00:49.25 bitrate=N/A speed=2.98x    frame= 1219 fps= 72 q=-0.0 size=N/A time=00:00:50.84 bitrate=N/A speed=2.98x    frame= 1256 fps= 72 q=-0.0 size=N/A time=00:00:52.38 bitrate=N/A speed=2.98x    frame= 1292 fps= 71 q=-0.0 size=N/A time=00:00:53.88 bitrate=N/A speed=2.98x    frame= 1331 fps= 72 q=-0.0 size=N/A time=00:00:55.51 bitrate=N/A speed=2.98x    frame= 1368 fps= 72 q=-0.0 size=N/A time=00:00:57.05 bitrate=N/A speed=2.98x    frame= 1405 fps= 72 q=-0.0 size=N/A time=00:00:58.60 bitrate=N/A speed=2.99x    frame= 1442 fps= 72 q=-0.0 size=N/A time=00:01:00.14 bitrate=N/A speed=2.99x    frame= 1482 fps= 72 q=-0.0 size=N/A time=00:01:01.81 bitrate=N/A speed=2.99x    frame= 1519 fps= 72 q=-0.0 size=N/A time=00:01:03.35 bitrate=N/A speed=2.99x    frame= 1557 fps= 72 q=-0.0 size=N/A time=00:01:04.93 bitrate=N/A speed=2.99x    frame= 1594 fps= 72 q=-0.0 size=N/A time=00:01:06.48 bitrate=N/A speed=2.99x    frame= 1625 fps= 72 q=-0.0 size=N/A time=00:01:07.77 bitrate=N/A speed=2.98x    frame= 1670 fps= 72 q=-0.0 size=N/A time=00:01:09.65 bitrate=N/A speed=   3x    frame= 1707 fps= 72 q=-0.0 size=N/A time=00:01:11.19 bitrate=N/A speed=   3x    frame= 1745 fps= 72 q=-0.0 size=N/A time=00:01:12.78 bitrate=N/A speed=   3x    frame= 1781 fps= 72 q=-0.0 size=N/A time=00:01:14.28 bitrate=N/A speed=   3x    frame= 1819 fps= 72 q=-0.0 size=N/A time=00:01:15.86 bitrate=N/A speed=   3x    frame= 1853 fps= 72 q=-0.0 size=N/A time=00:01:17.28 bitrate=N/A speed=2.99x    frame= 1890 fps= 72 q=-0.0 size=N/A time=00:01:18.82 bitrate=N/A speed=2.99x    frame= 1923 fps= 72 q=-0.0 size=N/A time=00:01:20.20 bitrate=N/A speed=2.99x    frame= 1970 fps= 72 q=-0.0 size=N/A time=00:01:22.16 bitrate=N/A speed=   3x    frame= 2009 fps= 72 q=-0.0 size=N/A time=00:01:23.79 bitrate=N/A speed=   3x    frame= 2045 fps= 72 q=-0.0 size=N/A time=00:01:25.29 bitrate=N/A speed=   3x    frame= 2082 fps= 72 q=-0.0 size=N/A time=00:01:26.83 bitrate=N/A speed=   3x    frame= 2119 fps= 72 q=-0.0 size=N/A time=00:01:28.37 bitrate=N/A speed=   3x    frame= 2156 fps= 72 q=-0.0 size=N/A time=00:01:29.92 bitrate=N/A speed=   3x    frame= 2187 fps= 72 q=-0.0 size=N/A time=00:01:31.21 bitrate=N/A speed=   3x    frame= 2217 fps= 72 q=-0.0 size=N/A time=00:01:32.46 bitrate=N/A speed=2.99x    frame= 2269 fps= 72 q=-0.0 size=N/A time=00:01:34.63 bitrate=N/A speed=3.01x    frame= 2306 fps= 72 q=-0.0 size=N/A time=00:01:36.17 bitrate=N/A speed=3.01x    frame= 2343 fps= 72 q=-0.0 size=N/A time=00:01:37.72 bitrate=N/A speed=3.01x    frame= 2379 fps= 72 q=-0.0 size=N/A time=00:01:39.22 bitrate=N/A speed=   3x    frame= 2413 fps= 72 q=-0.0 size=N/A time=00:01:40.64 bitrate=N/A speed=   3x    frame= 2455 fps= 72 q=-0.0 size=N/A time=00:01:42.39 bitrate=N/A speed=3.01x    frame= 2492 fps= 72 q=-0.0 size=N/A time=00:01:43.93 bitrate=N/A speed=3.01x    frame= 2531 fps= 72 q=-0.0 size=N/A time=00:01:45.56 bitrate=N/A speed=3.01x    frame= 2564 fps= 72 q=-0.0 size=N/A time=00:01:46.94 bitrate=N/A speed=   3x    frame= 2592 fps= 72 q=-0.0 size=N/A time=00:01:48.10 bitrate=N/A speed=2.99x    frame= 2644 fps= 72 q=-0.0 size=N/A time=00:01:50.27 bitrate=N/A speed=3.01x    frame= 2682 fps= 72 q=-0.0 size=N/A time=00:01:51.86 bitrate=N/A speed=3.01x    frame= 2716 fps= 72 q=-0.0 size=N/A time=00:01:53.27 bitrate=N/A speed=3.01x    frame= 2753 fps= 72 q=-0.0 size=N/A time=00:01:54.82 bitrate=N/A speed=3.01x    frame= 2782 fps= 72 q=-0.0 size=N/A time=00:01:56.03 bitrate=N/A speed=   3x    frame= 2833 fps= 72 q=-0.0 size=N/A time=00:01:58.15 bitrate=N/A speed=3.01x    frame= 2872 fps= 72 q=-0.0 size=N/A time=00:01:59.78 bitrate=N/A speed=3.01x    frame= 2906 fps= 72 q=-0.0 size=N/A time=00:02:01.20 bitrate=N/A speed=3.01x    frame= 2943 fps= 72 q=-0.0 size=N/A time=00:02:02.74 bitrate=N/A speed=3.01x    frame= 2974 fps= 72 q=-0.0 size=N/A time=00:02:04.04 bitrate=N/A speed=   3x    frame= 3017 fps= 72 q=-0.0 size=N/A time=00:02:05.83 bitrate=N/A speed=3.01x    frame= 3046 fps= 72 q=-0.0 size=N/A time=00:02:07.04 bitrate=N/A speed=   3x    frame= 3097 fps= 72 q=-0.0 size=N/A time=00:02:09.17 bitrate=N/A speed=3.02x    frame= 3126 fps= 72 q=-0.0 size=N/A time=00:02:10.38 bitrate=N/A speed=3.01x    frame= 3158 fps= 72 q=-0.0 size=N/A time=00:02:11.71 bitrate=N/A speed=   3x    frame= 3196 fps= 72 q=-0.0 size=N/A time=00:02:13.29 bitrate=N/A speed=   3x    frame= 3236 fps= 72 q=-0.0 size=N/A time=00:02:14.96 bitrate=N/A speed=3.01x    frame= 3282 fps= 72 q=-0.0 size=N/A time=00:02:16.88 bitrate=N/A speed=3.01x    frame= 3319 fps= 72 q=-0.0 size=N/A time=00:02:18.42 bitrate=N/A speed=3.01x    frame= 3355 fps= 72 q=-0.0 size=N/A time=00:02:19.93 bitrate=N/A speed=3.01x    frame= 3384 fps= 72 q=-0.0 size=N/A time=00:02:21.14 bitrate=N/A speed=3.01x    frame= 3430 fps= 72 q=-0.0 size=N/A time=00:02:23.05 bitrate=N/A speed=3.01x    frame= 3468 fps= 72 q=-0.0 size=N/A time=00:02:24.64 bitrate=N/A speed=3.01x    frame= 3504 fps= 72 q=-0.0 size=N/A time=00:02:26.14 bitrate=N/A speed=3.01x    frame= 3538 fps= 72 q=-0.0 size=N/A time=00:02:27.56 bitrate=N/A speed=3.01x    frame= 3579 fps= 72 q=-0.0 size=N/A time=00:02:29.27 bitrate=N/A speed=3.01x    frame= 3610 fps= 72 q=-0.0 size=N/A time=00:02:30.56 bitrate=N/A speed=3.01x    frame= 3654 fps= 72 q=-0.0 size=N/A time=00:02:32.40 bitrate=N/A speed=3.01x    frame= 3692 fps= 72 q=-0.0 size=N/A time=00:02:33.98 bitrate=N/A speed=3.01x    frame= 3730 fps= 72 q=-0.0 size=N/A time=00:02:35.57 bitrate=N/A speed=3.02x    frame= 3767 fps= 72 q=-0.0 size=N/A time=00:02:37.11 bitrate=N/A speed=3.01x    frame= 3804 fps= 72 q=-0.0 size=N/A time=00:02:38.65 bitrate=N/A speed=3.01x    frame= 3840 fps= 72 q=-0.0 size=N/A time=00:02:40.16 bitrate=N/A speed=3.01x    frame= 3875 fps= 72 q=-0.0 size=N/A time=00:02:41.61 bitrate=N/A speed=3.01x    frame= 3915 fps= 72 q=-0.0 size=N/A time=00:02:43.28 bitrate=N/A speed=3.01x    frame= 3947 fps= 72 q=-0.0 size=N/A time=00:02:44.62 bitrate=N/A speed=3.01x    frame= 3984 fps= 72 q=-0.0 size=N/A time=00:02:46.16 bitrate=N/A speed=3.01x    frame= 4020 fps= 72 q=-0.0 size=N/A time=00:02:47.66 bitrate=N/A speed=3.01x    frame= 4055 fps= 72 q=-0.0 size=N/A time=00:02:49.12 bitrate=N/A speed=3.01x    frame= 4091 fps= 72 q=-0.0 size=N/A time=00:02:50.62 bitrate=N/A speed=3.01x    frame= 4128 fps= 72 q=-0.0 size=N/A time=00:02:52.17 bitrate=N/A speed=3.01x    frame= 4163 fps= 72 q=-0.0 size=N/A time=00:02:53.63 bitrate=N/A speed=3.01x    frame= 4197 fps= 72 q=-0.0 size=N/A time=00:02:55.04 bitrate=N/A speed=   3x    frame= 4228 fps= 72 q=-0.0 size=N/A time=00:02:56.34 bitrate=N/A speed=   3x    frame= 4274 fps= 72 q=-0.0 size=N/A time=00:02:58.26 bitrate=N/A speed=   3x    frame= 4305 fps= 72 q=-0.0 size=N/A time=00:02:59.55 bitrate=N/A speed=   3x    frame= 4346 fps= 72 q=-0.0 size=N/A time=00:03:01.26 bitrate=N/A speed=   3x    frame= 4383 fps= 72 q=-0.0 size=N/A time=00:03:02.80 bitrate=N/A speed=   3x    frame= 4420 fps= 72 q=-0.0 size=N/A time=00:03:04.35 bitrate=N/A speed=   3x    frame= 4456 fps= 72 q=-0.0 size=N/A time=00:03:05.85 bitrate=N/A speed=   3x    frame= 4491 fps= 72 q=-0.0 size=N/A time=00:03:07.31 bitrate=N/A speed=   3x    frame= 4516 fps= 72 q=-0.0 size=N/A time=00:03:08.35 bitrate=N/A speed=2.99x    frame= 4564 fps= 72 q=-0.0 size=N/A time=00:03:10.35 bitrate=N/A speed=   3x    frame= 4596 fps= 72 q=-0.0 size=N/A time=00:03:11.69 bitrate=N/A speed=   3x    frame= 4637 fps= 72 q=-0.0 size=N/A time=00:03:13.40 bitrate=N/A speed=   3x    frame= 4675 fps= 72 q=-0.0 size=N/A time=00:03:14.98 bitrate=N/A speed=   3x    frame= 4711 fps= 72 q=-0.0 size=N/A time=00:03:16.48 bitrate=N/A speed=   3x    frame= 4750 fps= 72 q=-0.0 size=N/A time=00:03:18.11 bitrate=N/A speed=   3x    frame= 4787 fps= 72 q=-0.0 size=N/A time=00:03:19.65 bitrate=N/A speed=   3x    frame= 4826 fps= 72 q=-0.0 size=N/A time=00:03:21.28 bitrate=N/A speed=   3x    frame= 4863 fps= 72 q=-0.0 size=N/A time=00:03:22.82 bitrate=N/A speed=   3x    frame= 4898 fps= 72 q=-0.0 size=N/A time=00:03:24.28 bitrate=N/A speed=   3x    frame= 4938 fps= 72 q=-0.0 size=N/A time=00:03:25.95 bitrate=N/A speed=   3x    frame= 4975 fps= 72 q=-0.0 size=N/A time=00:03:27.49 bitrate=N/A speed=   3x    frame= 5008 fps= 72 q=-0.0 size=N/A time=00:03:28.87 bitrate=N/A speed=   3x    frame= 5045 fps= 72 q=-0.0 size=N/A time=00:03:30.41 bitrate=N/A speed=   3x    frame= 5083 fps= 72 q=-0.0 size=N/A time=00:03:32.00 bitrate=N/A speed=   3x    frame= 5124 fps= 72 q=-0.0 size=N/A time=00:03:33.71 bitrate=N/A speed=   3x    frame= 5157 fps= 72 q=-0.0 size=N/A time=00:03:35.08 bitrate=N/A speed=   3x    frame= 5199 fps= 72 q=-0.0 size=N/A time=00:03:36.84 bitrate=N/A speed=   3x    frame= 5236 fps= 72 q=-0.0 size=N/A time=00:03:38.38 bitrate=N/A speed=   3x    frame= 5274 fps= 72 q=-0.0 size=N/A time=00:03:39.96 bitrate=N/A speed=   3x    frame= 5309 fps= 72 q=-0.0 size=N/A time=00:03:41.42 bitrate=N/A speed=   3x    frame= 5338 fps= 72 q=-0.0 size=N/A time=00:03:42.63 bitrate=N/A speed=   3x    frame= 5383 fps= 72 q=-0.0 size=N/A time=00:03:44.51 bitrate=N/A speed=   3x    frame= 5423 fps= 72 q=-0.0 size=N/A time=00:03:46.18 bitrate=N/A speed=   3x    frame= 5451 fps= 72 q=-0.0 size=N/A time=00:03:47.35 bitrate=N/A speed=   3x    frame= 5499 fps= 72 q=-0.0 size=N/A time=00:03:49.35 bitrate=N/A speed=   3x    frame= 5531 fps= 72 q=-0.0 size=N/A time=00:03:50.68 bitrate=N/A speed=   3x    frame= 5568 fps= 72 q=-0.0 size=N/A time=00:03:52.23 bitrate=N/A speed=   3x    frame= 5611 fps= 72 q=-0.0 size=N/A time=00:03:54.02 bitrate=N/A speed=   3x    frame= 5648 fps= 72 q=-0.0 size=N/A time=00:03:55.56 bitrate=N/A speed=   3x    frame= 5685 fps= 72 q=-0.0 size=N/A time=00:03:57.11 bitrate=N/A speed=   3x    frame= 5724 fps= 72 q=-0.0 size=N/A time=00:03:58.73 bitrate=N/A speed=   3x    frame= 5761 fps= 72 q=-0.0 size=N/A time=00:04:00.28 bitrate=N/A speed=   3x    frame= 5798 fps= 72 q=-0.0 size=N/A time=00:04:01.82 bitrate=N/A speed=   3x    frame= 5836 fps= 72 q=-0.0 size=N/A time=00:04:03.40 bitrate=N/A speed=   3x    frame= 5875 fps= 72 q=-0.0 size=N/A time=00:04:05.03 bitrate=N/A speed=3.01x    frame= 5908 fps= 72 q=-0.0 size=N/A time=00:04:06.41 bitrate=N/A speed=   3x    frame= 5950 fps= 72 q=-0.0 size=N/A time=00:04:08.16 bitrate=N/A speed=3.01x    frame= 5989 fps= 72 q=-0.0 size=N/A time=00:04:09.79 bitrate=N/A speed=3.01x    frame= 6028 fps= 72 q=-0.0 size=N/A time=00:04:11.41 bitrate=N/A speed=3.01x    frame= 6067 fps= 72 q=-0.0 size=N/A time=00:04:13.04 bitrate=N/A speed=3.01x    frame= 6099 fps= 72 q=-0.0 size=N/A time=00:04:14.37 bitrate=N/A speed=3.01x    frame= 6139 fps= 72 q=-0.0 size=N/A time=00:04:16.04 bitrate=N/A speed=3.01x    frame= 6176 fps= 72 q=-0.0 size=N/A time=00:04:17.59 bitrate=N/A speed=3.01x    frame= 6213 fps= 72 q=-0.0 size=N/A time=00:04:19.13 bitrate=N/A speed=3.01x    frame= 6250 fps= 72 q=-0.0 size=N/A time=00:04:20.67 bitrate=N/A speed=3.01x    frame= 6281 fps= 72 q=-0.0 size=N/A time=00:04:21.97 bitrate=N/A speed=   3x    frame= 6318 fps= 72 q=-0.0 size=N/A time=00:04:23.51 bitrate=N/A speed=   3x    frame= 6355 fps= 72 q=-0.0 size=N/A time=00:04:25.05 bitrate=N/A speed=   3x    frame= 6392 fps= 72 q=-0.0 size=N/A time=00:04:26.59 bitrate=N/A speed=   3x    frame= 6424 fps= 72 q=-0.0 size=N/A time=00:04:27.93 bitrate=N/A speed=   3x    frame= 6458 fps= 72 q=-0.0 size=N/A time=00:04:29.35 bitrate=N/A speed=   3x    frame= 6498 fps= 72 q=-0.0 size=N/A time=00:04:31.02 bitrate=N/A speed=   3x    frame= 6536 fps= 72 q=-0.0 size=N/A time=00:04:32.60 bitrate=N/A speed=   3x    frame= 6574 fps= 72 q=-0.0 size=N/A time=00:04:34.19 bitrate=N/A speed=   3x    frame= 6612 fps= 72 q=-0.0 size=N/A time=00:04:35.77 bitrate=N/A speed=   3x    frame= 6642 fps= 72 q=-0.0 size=N/A time=00:04:37.02 bitrate=N/A speed=   3x    frame= 6674 fps= 72 q=-0.0 size=N/A time=00:04:38.36 bitrate=N/A speed=   3x    frame= 6716 fps= 72 q=-0.0 size=N/A time=00:04:40.11 bitrate=N/A speed=   3x    frame= 6741 fps= 72 q=-0.0 size=N/A time=00:04:41.15 bitrate=N/A speed=2.99x    frame= 6789 fps= 72 q=-0.0 size=N/A time=00:04:43.15 bitrate=N/A speed=   3x    frame= 6825 fps= 72 q=-0.0 size=N/A time=00:04:44.65 bitrate=N/A speed=   3x    frame= 6858 fps= 72 q=-0.0 size=N/A time=00:04:46.03 bitrate=N/A speed=   3x    frame= 6897 fps= 72 q=-0.0 size=N/A time=00:04:47.66 bitrate=N/A speed=   3x    frame= 6929 fps= 72 q=-0.0 size=N/A time=00:04:48.99 bitrate=N/A speed=   3x    frame= 6969 fps= 72 q=-0.0 size=N/A time=00:04:50.66 bitrate=N/A speed=   3x    frame= 7005 fps= 72 q=-0.0 size=N/A time=00:04:52.16 bitrate=N/A speed=   3x    frame= 7042 fps= 72 q=-0.0 size=N/A time=00:04:53.71 bitrate=N/A speed=   3x    frame= 7079 fps= 72 q=-0.0 size=N/A time=00:04:55.25 bitrate=N/A speed=   3x    frame= 7110 fps= 72 q=-0.0 size=N/A time=00:04:56.54 bitrate=N/A speed=2.99x    frame= 7145 fps= 72 q=-0.0 size=N/A time=00:04:58.00 bitrate=N/A speed=2.99x    frame= 7179 fps= 72 q=-0.0 size=N/A time=00:04:59.42 bitrate=N/A speed=2.99x    frame= 7213 fps= 72 q=-0.0 size=N/A time=00:05:00.84 bitrate=N/A speed=2.99x    frame= 7254 fps= 72 q=-0.0 size=N/A time=00:05:02.55 bitrate=N/A speed=2.99x    frame= 7284 fps= 72 q=-0.0 size=N/A time=00:05:03.80 bitrate=N/A speed=2.99x    frame= 7334 fps= 72 q=-0.0 size=N/A time=00:05:05.88 bitrate=N/A speed=2.99x    frame= 7368 fps= 72 q=-0.0 size=N/A time=00:05:07.30 bitrate=N/A speed=2.99x    frame= 7405 fps= 72 q=-0.0 size=N/A time=00:05:08.85 bitrate=N/A speed=2.99x    frame= 7435 fps= 72 q=-0.0 size=N/A time=00:05:10.10 bitrate=N/A speed=2.99x    frame= 7481 fps= 72 q=-0.0 size=N/A time=00:05:12.02 bitrate=N/A speed=2.99x    frame= 7509 fps= 72 q=-0.0 size=N/A time=00:05:13.18 bitrate=N/A speed=2.99x    frame= 7551 fps= 72 q=-0.0 size=N/A time=00:05:14.93 bitrate=N/A speed=2.99x    frame= 7590 fps= 72 q=-0.0 size=N/A time=00:05:16.56 bitrate=N/A speed=2.99x    frame= 7626 fps= 72 q=-0.0 size=N/A time=00:05:18.06 bitrate=N/A speed=2.99x    frame= 7663 fps= 72 q=-0.0 size=N/A time=00:05:19.61 bitrate=N/A speed=2.99x    frame= 7700 fps= 72 q=-0.0 size=N/A time=00:05:21.15 bitrate=N/A speed=2.99x    frame= 7736 fps= 72 q=-0.0 size=N/A time=00:05:22.65 bitrate=N/A speed=2.99x    frame= 7773 fps= 72 q=-0.0 size=N/A time=00:05:24.19 bitrate=N/A speed=2.99x    frame= 7810 fps= 72 q=-0.0 size=N/A time=00:05:25.74 bitrate=N/A speed=2.99x    frame= 7848 fps= 72 q=-0.0 size=N/A time=00:05:27.32 bitrate=N/A speed=2.99x    frame= 7885 fps= 72 q=-0.0 size=N/A time=00:05:28.87 bitrate=N/A speed=2.99x    frame= 7922 fps= 72 q=-0.0 size=N/A time=00:05:30.41 bitrate=N/A speed=2.99x    frame= 7959 fps= 72 q=-0.0 size=N/A time=00:05:31.95 bitrate=N/A speed=2.99x    frame= 7997 fps= 72 q=-0.0 size=N/A time=00:05:33.54 bitrate=N/A speed=2.99x    frame= 8035 fps= 72 q=-0.0 size=N/A time=00:05:35.12 bitrate=N/A speed=2.99x    frame= 8071 fps= 72 q=-0.0 size=N/A time=00:05:36.62 bitrate=N/A speed=2.99x    frame= 8109 fps= 72 q=-0.0 size=N/A time=00:05:38.21 bitrate=N/A speed=2.99x    frame= 8145 fps= 72 q=-0.0 size=N/A time=00:05:39.71 bitrate=N/A speed=2.99x    frame= 8182 fps= 72 q=-0.0 size=N/A time=00:05:41.25 bitrate=N/A speed=2.99x    frame= 8216 fps= 72 q=-0.0 size=N/A time=00:05:42.67 bitrate=N/A speed=2.99x    frame= 8241 fps= 72 q=-0.0 size=N/A time=00:05:43.71 bitrate=N/A speed=2.99x    frame= 8294 fps= 72 q=-0.0 size=N/A time=00:05:45.92 bitrate=N/A speed=2.99x    frame= 8325 fps= 72 q=-0.0 size=N/A time=00:05:47.22 bitrate=N/A speed=2.99x    frame= 8359 fps= 72 q=-0.0 size=N/A time=00:05:48.63 bitrate=N/A speed=2.99x    frame= 8405 fps= 72 q=-0.0 size=N/A time=00:05:50.55 bitrate=N/A speed=2.99x    frame= 8431 fps= 72 q=-0.0 size=N/A time=00:05:51.64 bitrate=N/A speed=2.99x    frame= 8475 fps= 72 q=-0.0 size=N/A time=00:05:53.47 bitrate=N/A speed=2.99x    frame= 8515 fps= 72 q=-0.0 size=N/A time=00:05:55.14 bitrate=N/A speed=2.99x    frame= 8555 fps= 72 q=-0.0 size=N/A time=00:05:56.81 bitrate=N/A speed=2.99x    frame= 8592 fps= 72 q=-0.0 size=N/A time=00:05:58.35 bitrate=N/A speed=2.99x    frame= 8631 fps= 72 q=-0.0 size=N/A time=00:05:59.98 bitrate=N/A speed=2.99x    frame= 8668 fps= 72 q=-0.0 size=N/A time=00:06:01.52 bitrate=N/A speed=2.99x    frame= 8705 fps= 72 q=-0.0 size=N/A time=00:06:03.07 bitrate=N/A speed=2.99x    frame= 8744 fps= 72 q=-0.0 size=N/A time=00:06:04.69 bitrate=N/A speed=2.99x    frame= 8774 fps= 72 q=-0.0 size=N/A time=00:06:05.94 bitrate=N/A speed=2.99x    frame= 8819 fps= 72 q=-0.0 size=N/A time=00:06:07.82 bitrate=N/A speed=   3x    frame= 8856 fps= 72 q=-0.0 size=N/A time=00:06:09.36 bitrate=N/A speed=   3x    frame= 8883 fps= 72 q=-0.0 size=N/A time=00:06:10.49 bitrate=N/A speed=2.99x    frame= 8924 fps= 72 q=-0.0 size=N/A time=00:06:12.20 bitrate=N/A speed=2.99x    frame= 8961 fps= 72 q=-0.0 size=N/A time=00:06:13.74 bitrate=N/A speed=2.99x    frame= 9002 fps= 72 q=-0.0 size=N/A time=00:06:15.45 bitrate=N/A speed=2.99x    frame= 9033 fps= 72 q=-0.0 size=N/A time=00:06:16.75 bitrate=N/A speed=2.99x    frame= 9067 fps= 72 q=-0.0 size=N/A time=00:06:18.16 bitrate=N/A speed=2.99x    frame= 9103 fps= 72 q=-0.0 size=N/A time=00:06:19.67 bitrate=N/A speed=2.99x    frame= 9146 fps= 72 q=-0.0 size=N/A time=00:06:21.46 bitrate=N/A speed=2.99x    frame= 9181 fps= 72 q=-0.0 size=N/A time=00:06:22.92 bitrate=N/A speed=2.99x    frame= 9217 fps= 72 q=-0.0 size=N/A time=00:06:24.42 bitrate=N/A speed=2.99x    frame= 9253 fps= 72 q=-0.0 size=N/A time=00:06:25.92 bitrate=N/A speed=2.99x    frame= 9287 fps= 72 q=-0.0 size=N/A time=00:06:27.34 bitrate=N/A speed=2.99x    frame= 9324 fps= 72 q=-0.0 size=N/A time=00:06:28.88 bitrate=N/A speed=2.99x    frame= 9360 fps= 72 q=-0.0 size=N/A time=00:06:30.39 bitrate=N/A speed=2.99x    frame= 9397 fps= 72 q=-0.0 size=N/A time=00:06:31.93 bitrate=N/A speed=2.99x    frame= 9432 fps= 72 q=-0.0 size=N/A time=00:06:33.39 bitrate=N/A speed=2.99x    frame= 9470 fps= 72 q=-0.0 size=N/A time=00:06:34.97 bitrate=N/A speed=2.99x    frame= 9505 fps= 72 q=-0.0 size=N/A time=00:06:36.43 bitrate=N/A speed=2.99x    frame= 9533 fps= 72 q=-0.0 size=N/A time=00:06:37.60 bitrate=N/A speed=2.99x    frame= 9572 fps= 72 q=-0.0 size=N/A time=00:06:39.23 bitrate=N/A speed=2.99x    frame= 9607 fps= 72 q=-0.0 size=N/A time=00:06:40.69 bitrate=N/A speed=2.99x    frame= 9641 fps= 72 q=-0.0 size=N/A time=00:06:42.11 bitrate=N/A speed=2.99x    frame= 9687 fps= 72 q=-0.0 size=N/A time=00:06:44.02 bitrate=N/A speed=2.99x    frame= 9722 fps= 72 q=-0.0 size=N/A time=00:06:45.48 bitrate=N/A speed=2.99x    frame= 9758 fps= 72 q=-0.0 size=N/A time=00:06:46.98 bitrate=N/A speed=2.99x    frame= 9793 fps= 72 q=-0.0 size=N/A time=00:06:48.44 bitrate=N/A speed=2.99x    frame= 9828 fps= 72 q=-0.0 size=N/A time=00:06:49.90 bitrate=N/A speed=2.99x    frame= 9864 fps= 72 q=-0.0 size=N/A time=00:06:51.41 bitrate=N/A speed=2.99x    frame= 9898 fps= 72 q=-0.0 size=N/A time=00:06:52.82 bitrate=N/A speed=2.99x    frame= 9934 fps= 72 q=-0.0 size=N/A time=00:06:54.33 bitrate=N/A speed=2.99x    frame= 9970 fps= 72 q=-0.0 size=N/A time=00:06:55.83 bitrate=N/A speed=2.99x    frame= 9997 fps= 71 q=-0.0 size=N/A time=00:06:56.95 bitrate=N/A speed=2.98x    frame=10043 fps= 72 q=-0.0 size=N/A time=00:06:58.87 bitrate=N/A speed=2.98x    frame=10079 fps= 72 q=-0.0 size=N/A time=00:07:00.37 bitrate=N/A speed=2.98x    frame=10110 fps= 72 q=-0.0 size=N/A time=00:07:01.67 bitrate=N/A speed=2.98x    frame=10142 fps= 71 q=-0.0 size=N/A time=00:07:03.00 bitrate=N/A speed=2.98x    frame=10181 fps= 71 q=-0.0 size=N/A time=00:07:04.63 bitrate=N/A speed=2.98x    frame=10217 fps= 71 q=-0.0 size=N/A time=00:07:06.13 bitrate=N/A speed=2.98x    frame=10255 fps= 72 q=-0.0 size=N/A time=00:07:07.71 bitrate=N/A speed=2.98x    frame=10299 fps= 72 q=-0.0 size=N/A time=00:07:09.55 bitrate=N/A speed=2.98x    frame=10334 fps= 72 q=-0.0 size=N/A time=00:07:11.01 bitrate=N/A speed=2.98x    frame=10364 fps= 71 q=-0.0 size=N/A time=00:07:12.26 bitrate=N/A speed=2.98x    frame=10406 fps= 72 q=-0.0 size=N/A time=00:07:14.01 bitrate=N/A speed=2.98x    frame=10442 fps= 72 q=-0.0 size=N/A time=00:07:15.51 bitrate=N/A speed=2.98x    frame=10479 fps= 72 q=-0.0 size=N/A time=00:07:17.06 bitrate=N/A speed=2.98x    frame=10516 fps= 72 q=-0.0 size=N/A time=00:07:18.60 bitrate=N/A speed=2.98x    frame=10546 fps= 71 q=-0.0 size=N/A time=00:07:19.85 bitrate=N/A speed=2.98x    frame=10589 fps= 72 q=-0.0 size=N/A time=00:07:21.64 bitrate=N/A speed=2.98x    frame=10625 fps= 72 q=-0.0 size=N/A time=00:07:23.15 bitrate=N/A speed=2.98x    frame=10660 fps= 71 q=-0.0 size=N/A time=00:07:24.61 bitrate=N/A speed=2.98x    frame=10695 fps= 71 q=-0.0 size=N/A time=00:07:26.07 bitrate=N/A speed=2.98x    frame=10730 fps= 71 q=-0.0 size=N/A time=00:07:27.53 bitrate=N/A speed=2.98x    frame=10765 fps= 71 q=-0.0 size=N/A time=00:07:28.99 bitrate=N/A speed=2.98x    frame=10802 fps= 71 q=-0.0 size=N/A time=00:07:30.53 bitrate=N/A speed=2.98x    frame=10836 fps= 71 q=-0.0 size=N/A time=00:07:31.95 bitrate=N/A speed=2.98x    frame=10873 fps= 71 q=-0.0 size=N/A time=00:07:33.49 bitrate=N/A speed=2.98x    frame=10910 fps= 71 q=-0.0 size=N/A time=00:07:35.03 bitrate=N/A speed=2.98x    frame=10938 fps= 71 q=-0.0 size=N/A time=00:07:36.20 bitrate=N/A speed=2.98x    frame=10981 fps= 71 q=-0.0 size=N/A time=00:07:37.99 bitrate=N/A speed=2.98x    frame=11017 fps= 71 q=-0.0 size=N/A time=00:07:39.50 bitrate=N/A speed=2.98x    frame=11053 fps= 71 q=-0.0 size=N/A time=00:07:41.00 bitrate=N/A speed=2.98x    frame=11089 fps= 71 q=-0.0 size=N/A time=00:07:42.50 bitrate=N/A speed=2.98x    frame=11123 fps= 71 q=-0.0 size=N/A time=00:07:43.92 bitrate=N/A speed=2.98x    frame=11155 fps= 71 q=-0.0 size=N/A time=00:07:45.25 bitrate=N/A speed=2.98x    frame=11192 fps= 71 q=-0.0 size=N/A time=00:07:46.79 bitrate=N/A speed=2.98x    frame=11232 fps= 71 q=-0.0 size=N/A time=00:07:48.46 bitrate=N/A speed=2.98x    frame=11265 fps= 71 q=-0.0 size=N/A time=00:07:49.84 bitrate=N/A speed=2.98x    frame=11307 fps= 71 q=-0.0 size=N/A time=00:07:51.59 bitrate=N/A speed=2.98x    frame=11344 fps= 71 q=-0.0 size=N/A time=00:07:53.13 bitrate=N/A speed=2.98x    frame=11378 fps= 71 q=-0.0 size=N/A time=00:07:54.55 bitrate=N/A speed=2.98x    frame=11417 fps= 71 q=-0.0 size=N/A time=00:07:56.18 bitrate=N/A speed=2.98x    frame=11453 fps= 71 q=-0.0 size=N/A time=00:07:57.68 bitrate=N/A speed=2.98x    frame=11490 fps= 71 q=-0.0 size=N/A time=00:07:59.22 bitrate=N/A speed=2.98x    frame=11527 fps= 71 q=-0.0 size=N/A time=00:08:00.77 bitrate=N/A speed=2.98x    frame=11563 fps= 71 q=-0.0 size=N/A time=00:08:02.27 bitrate=N/A speed=2.98x    frame=11601 fps= 71 q=-0.0 size=N/A time=00:08:03.85 bitrate=N/A speed=2.98x    frame=11637 fps= 71 q=-0.0 size=N/A time=00:08:05.35 bitrate=N/A speed=2.98x    frame=11666 fps= 71 q=-0.0 size=N/A time=00:08:06.56 bitrate=N/A speed=2.97x    frame=11698 fps= 71 q=-0.0 size=N/A time=00:08:07.90 bitrate=N/A speed=2.97x    frame=11744 fps= 71 q=-0.0 size=N/A time=00:08:09.82 bitrate=N/A speed=2.98x    frame=11781 fps= 71 q=-0.0 size=N/A time=00:08:11.36 bitrate=N/A speed=2.98x    frame=11815 fps= 71 q=-0.0 size=N/A time=00:08:12.78 bitrate=N/A speed=2.98x    frame=11851 fps= 71 q=-0.0 size=N/A time=00:08:14.28 bitrate=N/A speed=2.98x    frame=11893 fps= 71 q=-0.0 size=N/A time=00:08:16.03 bitrate=N/A speed=2.98x    frame=11930 fps= 71 q=-0.0 size=N/A time=00:08:17.58 bitrate=N/A speed=2.98x    frame=11968 fps= 71 q=-0.0 size=N/A time=00:08:19.16 bitrate=N/A speed=2.98x    frame=12004 fps= 71 q=-0.0 size=N/A time=00:08:20.66 bitrate=N/A speed=2.98x    frame=12043 fps= 71 q=-0.0 size=N/A time=00:08:22.29 bitrate=N/A speed=2.98x    frame=12080 fps= 71 q=-0.0 size=N/A time=00:08:23.83 bitrate=N/A speed=2.98x    frame=12113 fps= 71 q=-0.0 size=N/A time=00:08:25.21 bitrate=N/A speed=2.98x    frame=12153 fps= 71 q=-0.0 size=N/A time=00:08:26.88 bitrate=N/A speed=2.98x    frame=12187 fps= 71 q=-0.0 size=N/A time=00:08:28.29 bitrate=N/A speed=2.98x    frame=12224 fps= 71 q=-0.0 size=N/A time=00:08:29.84 bitrate=N/A speed=2.98x    frame=12262 fps= 71 q=-0.0 size=N/A time=00:08:31.42 bitrate=N/A speed=2.98x    frame=12294 fps= 71 q=-0.0 size=N/A time=00:08:32.76 bitrate=N/A speed=2.98x    frame=12334 fps= 71 q=-0.0 size=N/A time=00:08:34.43 bitrate=N/A speed=2.98x    frame=12363 fps= 71 q=-0.0 size=N/A time=00:08:35.64 bitrate=N/A speed=2.97x    frame=12407 fps= 71 q=-0.0 size=N/A time=00:08:37.47 bitrate=N/A speed=2.98x    frame=12444 fps= 71 q=-0.0 size=N/A time=00:08:39.01 bitrate=N/A speed=2.98x    frame=12480 fps= 71 q=-0.0 size=N/A time=00:08:40.52 bitrate=N/A speed=2.98x    frame=12516 fps= 71 q=-0.0 size=N/A time=00:08:42.02 bitrate=N/A speed=2.98x    frame=12553 fps= 71 q=-0.0 size=N/A time=00:08:43.56 bitrate=N/A speed=2.98x    frame=12590 fps= 71 q=-0.0 size=N/A time=00:08:45.10 bitrate=N/A speed=2.98x    frame=12626 fps= 71 q=-0.0 size=N/A time=00:08:46.60 bitrate=N/A speed=2.98x    frame=12663 fps= 71 q=-0.0 size=N/A time=00:08:48.15 bitrate=N/A speed=2.98x    frame=12699 fps= 71 q=-0.0 size=N/A time=00:08:49.65 bitrate=N/A speed=2.98x    frame=12735 fps= 71 q=-0.0 size=N/A time=00:08:51.15 bitrate=N/A speed=2.98x    frame=12772 fps= 71 q=-0.0 size=N/A time=00:08:52.69 bitrate=N/A speed=2.98x    frame=12807 fps= 71 q=-0.0 size=N/A time=00:08:54.15 bitrate=N/A speed=2.97x    frame=12842 fps= 71 q=-0.0 size=N/A time=00:08:55.61 bitrate=N/A speed=2.97x    frame=12877 fps= 71 q=-0.0 size=N/A time=00:08:57.07 bitrate=N/A speed=2.97x    frame=12904 fps= 71 q=-0.0 size=N/A time=00:08:58.20 bitrate=N/A speed=2.97x    frame=12950 fps= 71 q=-0.0 size=N/A time=00:09:00.12 bitrate=N/A speed=2.97x    frame=12987 fps= 71 q=-0.0 size=N/A time=00:09:01.66 bitrate=N/A speed=2.97x    frame=13015 fps= 71 q=-0.0 size=N/A time=00:09:02.83 bitrate=N/A speed=2.97x    frame=13052 fps= 71 q=-0.0 size=N/A time=00:09:04.37 bitrate=N/A speed=2.97x    frame=13088 fps= 71 q=-0.0 size=N/A time=00:09:05.87 bitrate=N/A speed=2.97x    frame=13132 fps= 71 q=-0.0 size=N/A time=00:09:07.71 bitrate=N/A speed=2.97x    frame=13167 fps= 71 q=-0.0 size=N/A time=00:09:09.17 bitrate=N/A speed=2.97x    frame=13204 fps= 71 q=-0.0 size=N/A time=00:09:10.71 bitrate=N/A speed=2.97x    frame=13241 fps= 71 q=-0.0 size=N/A time=00:09:12.26 bitrate=N/A speed=2.97x    frame=13277 fps= 71 q=-0.0 size=N/A time=00:09:13.76 bitrate=N/A speed=2.97x    frame=13312 fps= 71 q=-0.0 size=N/A time=00:09:15.22 bitrate=N/A speed=2.97x    frame=13340 fps= 71 q=-0.0 size=N/A time=00:09:16.38 bitrate=N/A speed=2.97x    frame=13381 fps= 71 q=-0.0 size=N/A time=00:09:18.09 bitrate=N/A speed=2.97x    frame=13418 fps= 71 q=-0.0 size=N/A time=00:09:19.64 bitrate=N/A speed=2.97x    frame=13459 fps= 71 q=-0.0 size=N/A time=00:09:21.35 bitrate=N/A speed=2.97x    frame=13492 fps= 71 q=-0.0 size=N/A time=00:09:22.72 bitrate=N/A speed=2.97x    frame=13524 fps= 71 q=-0.0 size=N/A time=00:09:24.06 bitrate=N/A speed=2.97x    frame=13568 fps= 71 q=-0.0 size=N/A time=00:09:25.89 bitrate=N/A speed=2.97x    frame=13594 fps= 71 q=-0.0 size=N/A time=00:09:26.98 bitrate=N/A speed=2.97x    frame=13633 fps= 71 q=-0.0 size=N/A time=00:09:28.60 bitrate=N/A speed=2.97x    frame=13670 fps= 71 q=-0.0 size=N/A time=00:09:30.15 bitrate=N/A speed=2.97x    frame=13712 fps= 71 q=-0.0 size=N/A time=00:09:31.90 bitrate=N/A speed=2.97x    frame=13748 fps= 71 q=-0.0 size=N/A time=00:09:33.40 bitrate=N/A speed=2.97x    frame=13786 fps= 71 q=-0.0 size=N/A time=00:09:34.99 bitrate=N/A speed=2.97x    frame=13822 fps= 71 q=-0.0 size=N/A time=00:09:36.49 bitrate=N/A speed=2.97x    frame=13854 fps= 71 q=-0.0 size=N/A time=00:09:37.82 bitrate=N/A speed=2.97x    frame=13891 fps= 71 q=-0.0 size=N/A time=00:09:39.37 bitrate=N/A speed=2.97x    frame=13931 fps= 71 q=-0.0 size=N/A time=00:09:41.03 bitrate=N/A speed=2.97x    frame=13968 fps= 71 q=-0.0 size=N/A time=00:09:42.58 bitrate=N/A speed=2.97x    frame=14004 fps= 71 q=-0.0 size=N/A time=00:09:44.08 bitrate=N/A speed=2.97x    frame=14031 fps= 71 q=-0.0 size=N/A time=00:09:45.20 bitrate=N/A speed=2.97x    frame=14075 fps= 71 q=-0.0 size=N/A time=00:09:47.04 bitrate=N/A speed=2.97x    frame=14112 fps= 71 q=-0.0 size=N/A time=00:09:48.58 bitrate=N/A speed=2.97x    frame=14146 fps= 71 q=-0.0 size=N/A time=00:09:50.00 bitrate=N/A speed=2.97x    frame=14175 fps= 71 q=-0.0 size=N/A time=00:09:51.21 bitrate=N/A speed=2.97x    frame=14219 fps= 71 q=-0.0 size=N/A time=00:09:53.05 bitrate=N/A speed=2.97x    frame=14256 fps= 71 q=-0.0 size=N/A time=00:09:54.59 bitrate=N/A speed=2.97x    frame=14292 fps= 71 q=-0.0 size=N/A time=00:09:56.09 bitrate=N/A speed=2.97x    frame=14328 fps= 71 q=-0.0 size=N/A time=00:09:57.59 bitrate=N/A speed=2.97x    frame=14364 fps= 71 q=-0.0 size=N/A time=00:09:59.09 bitrate=N/A speed=2.97x    frame=14401 fps= 71 q=-0.0 size=N/A time=00:10:00.64 bitrate=N/A speed=2.97x    frame=14436 fps= 71 q=-0.0 size=N/A time=00:10:02.10 bitrate=N/A speed=2.97x    frame=14474 fps= 71 q=-0.0 size=N/A time=00:10:03.68 bitrate=N/A speed=2.97x    frame=14508 fps= 71 q=-0.0 size=N/A time=00:10:05.10 bitrate=N/A speed=2.97x    frame=14545 fps= 71 q=-0.0 size=N/A time=00:10:06.64 bitrate=N/A speed=2.97x    frame=14569 fps= 71 q=-0.0 size=N/A time=00:10:07.64 bitrate=N/A speed=2.97x    frame=14616 fps= 71 q=-0.0 size=N/A time=00:10:09.60 bitrate=N/A speed=2.97x    frame=14652 fps= 71 q=-0.0 size=N/A time=00:10:11.11 bitrate=N/A speed=2.97x    frame=14688 fps= 71 q=-0.0 size=N/A time=00:10:12.61 bitrate=N/A speed=2.97x    frame=14725 fps= 71 q=-0.0 size=N/A time=00:10:14.15 bitrate=N/A speed=2.97x    frame=14761 fps= 71 q=-0.0 size=N/A time=00:10:15.65 bitrate=N/A speed=2.97x    frame=14798 fps= 71 q=-0.0 size=N/A time=00:10:17.19 bitrate=N/A speed=2.97x    frame=14835 fps= 71 q=-0.0 size=N/A time=00:10:18.74 bitrate=N/A speed=2.97x    frame=14870 fps= 71 q=-0.0 size=N/A time=00:10:20.20 bitrate=N/A speed=2.97x    frame=14907 fps= 71 q=-0.0 size=N/A time=00:10:21.74 bitrate=N/A speed=2.97x    frame=14944 fps= 71 q=-0.0 size=N/A time=00:10:23.28 bitrate=N/A speed=2.97x    frame=14965 fps= 71 q=-0.0 size=N/A time=00:10:24.16 bitrate=N/A speed=2.96x    frame=15016 fps= 71 q=-0.0 size=N/A time=00:10:26.29 bitrate=N/A speed=2.97x    frame=15051 fps= 71 q=-0.0 size=N/A time=00:10:27.75 bitrate=N/A speed=2.97x    frame=15089 fps= 71 q=-0.0 size=N/A time=00:10:29.33 bitrate=N/A speed=2.97x    frame=15123 fps= 71 q=-0.0 size=N/A time=00:10:30.75 bitrate=N/A speed=2.97x    frame=15151 fps= 71 q=-0.0 size=N/A time=00:10:31.92 bitrate=N/A speed=2.97x    frame=15193 fps= 71 q=-0.0 size=N/A time=00:10:33.67 bitrate=N/A speed=2.97x    frame=15226 fps= 71 q=-0.0 size=N/A time=00:10:35.05 bitrate=N/A speed=2.97x    frame=15260 fps= 71 q=-0.0 size=N/A time=00:10:36.46 bitrate=N/A speed=2.97x    frame=15296 fps= 71 q=-0.0 size=N/A time=00:10:37.97 bitrate=N/A speed=2.96x    frame=15330 fps= 71 q=-0.0 size=N/A time=00:10:39.38 bitrate=N/A speed=2.96x    frame=15365 fps= 71 q=-0.0 size=N/A time=00:10:40.84 bitrate=N/A speed=2.96x    frame=15401 fps= 71 q=-0.0 size=N/A time=00:10:42.35 bitrate=N/A speed=2.96x    frame=15432 fps= 71 q=-0.0 size=N/A time=00:10:43.64 bitrate=N/A speed=2.96x    frame=15467 fps= 71 q=-0.0 size=N/A time=00:10:45.10 bitrate=N/A speed=2.96x    frame=15507 fps= 71 q=-0.0 size=N/A time=00:10:46.77 bitrate=N/A speed=2.96x    frame=15543 fps= 71 q=-0.0 size=N/A time=00:10:48.27 bitrate=N/A speed=2.96x    frame=15579 fps= 71 q=-0.0 size=N/A time=00:10:49.77 bitrate=N/A speed=2.96x    frame=15610 fps= 71 q=-0.0 size=N/A time=00:10:51.06 bitrate=N/A speed=2.96x    frame=15640 fps= 71 q=-0.0 size=N/A time=00:10:52.31 bitrate=N/A speed=2.96x    frame=15684 fps= 71 q=-0.0 size=N/A time=00:10:54.15 bitrate=N/A speed=2.96x    frame=15714 fps= 71 q=-0.0 size=N/A time=00:10:55.40 bitrate=N/A speed=2.96x    frame=15753 fps= 71 q=-0.0 size=N/A time=00:10:57.03 bitrate=N/A speed=2.96x    frame=15786 fps= 71 q=-0.0 size=N/A time=00:10:58.40 bitrate=N/A speed=2.96x    frame=15823 fps= 71 q=-0.0 size=N/A time=00:10:59.95 bitrate=N/A speed=2.96x    frame=15857 fps= 71 q=-0.0 size=N/A time=00:11:01.36 bitrate=N/A speed=2.96x    frame=15901 fps= 71 q=-0.0 size=N/A time=00:11:03.20 bitrate=N/A speed=2.96x    frame=15939 fps= 71 q=-0.0 size=N/A time=00:11:04.78 bitrate=N/A speed=2.96x    frame=15974 fps= 71 q=-0.0 size=N/A time=00:11:06.24 bitrate=N/A speed=2.96x    frame=16012 fps= 71 q=-0.0 size=N/A time=00:11:07.83 bitrate=N/A speed=2.96x    frame=16050 fps= 71 q=-0.0 size=N/A time=00:11:09.41 bitrate=N/A speed=2.96x    frame=16087 fps= 71 q=-0.0 size=N/A time=00:11:10.96 bitrate=N/A speed=2.96x    frame=16125 fps= 71 q=-0.0 size=N/A time=00:11:12.54 bitrate=N/A speed=2.96x    frame=16163 fps= 71 q=-0.0 size=N/A time=00:11:14.13 bitrate=N/A speed=2.96x    frame=16198 fps= 71 q=-0.0 size=N/A time=00:11:15.59 bitrate=N/A speed=2.96x    frame=16229 fps= 71 q=-0.0 size=N/A time=00:11:16.88 bitrate=N/A speed=2.96x    frame=16270 fps= 71 q=-0.0 size=N/A time=00:11:18.59 bitrate=N/A speed=2.96x    frame=16312 fps= 71 q=-0.0 size=N/A time=00:11:20.34 bitrate=N/A speed=2.96x    frame=16348 fps= 71 q=-0.0 size=N/A time=00:11:21.84 bitrate=N/A speed=2.96x    frame=16386 fps= 71 q=-0.0 size=N/A time=00:11:23.43 bitrate=N/A speed=2.96x    frame=16423 fps= 71 q=-0.0 size=N/A time=00:11:24.97 bitrate=N/A speed=2.96x    frame=16462 fps= 71 q=-0.0 size=N/A time=00:11:26.60 bitrate=N/A speed=2.96x    frame=16496 fps= 71 q=-0.0 size=N/A time=00:11:28.02 bitrate=N/A speed=2.96x    frame=16524 fps= 71 q=-0.0 size=N/A time=00:11:29.18 bitrate=N/A speed=2.96x    frame=16570 fps= 71 q=-0.0 size=N/A time=00:11:31.10 bitrate=N/A speed=2.96x    frame=16606 fps= 71 q=-0.0 size=N/A time=00:11:32.60 bitrate=N/A speed=2.96x    frame=16642 fps= 71 q=-0.0 size=N/A time=00:11:34.11 bitrate=N/A speed=2.96x    frame=16678 fps= 71 q=-0.0 size=N/A time=00:11:35.61 bitrate=N/A speed=2.96x    frame=16709 fps= 71 q=-0.0 size=N/A time=00:11:36.90 bitrate=N/A speed=2.96x    frame=16744 fps= 71 q=-0.0 size=N/A time=00:11:38.36 bitrate=N/A speed=2.96x    frame=16777 fps= 71 q=-0.0 size=N/A time=00:11:39.74 bitrate=N/A speed=2.96x    frame=16822 fps= 71 q=-0.0 size=N/A time=00:11:41.61 bitrate=N/A speed=2.96x    frame=16860 fps= 71 q=-0.0 size=N/A time=00:11:43.20 bitrate=N/A speed=2.96x    frame=16898 fps= 71 q=-0.0 size=N/A time=00:11:44.78 bitrate=N/A speed=2.96x    frame=16934 fps= 71 q=-0.0 size=N/A time=00:11:46.28 bitrate=N/A speed=2.96x    frame=16971 fps= 71 q=-0.0 size=N/A time=00:11:47.83 bitrate=N/A speed=2.96x    frame=17008 fps= 71 q=-0.0 size=N/A time=00:11:49.37 bitrate=N/A speed=2.96x    frame=17044 fps= 71 q=-0.0 size=N/A time=00:11:50.87 bitrate=N/A speed=2.96x    frame=17082 fps= 71 q=-0.0 size=N/A time=00:11:52.46 bitrate=N/A speed=2.96x    frame=17115 fps= 71 q=-0.0 size=N/A time=00:11:53.83 bitrate=N/A speed=2.96x    frame=17142 fps= 71 q=-0.0 size=N/A time=00:11:54.96 bitrate=N/A speed=2.96x    frame=17192 fps= 71 q=-0.0 size=N/A time=00:11:57.04 bitrate=N/A speed=2.96x    frame=17230 fps= 71 q=-0.0 size=N/A time=00:11:58.63 bitrate=N/A speed=2.96x    frame=17263 fps= 71 q=-0.0 size=N/A time=00:12:00.01 bitrate=N/A speed=2.96x    frame=17305 fps= 71 q=-0.0 size=N/A time=00:12:01.76 bitrate=N/A speed=2.96x    frame=17338 fps= 71 q=-0.0 size=N/A time=00:12:03.13 bitrate=N/A speed=2.96x    frame=17373 fps= 71 q=-0.0 size=N/A time=00:12:04.59 bitrate=N/A speed=2.96x    frame=17400 fps= 71 q=-0.0 size=N/A time=00:12:05.72 bitrate=N/A speed=2.96x    frame=17452 fps= 71 q=-0.0 size=N/A time=00:12:07.89 bitrate=N/A speed=2.96x    frame=17479 fps= 71 q=-0.0 size=N/A time=00:12:09.01 bitrate=N/A speed=2.96x    frame=17525 fps= 71 q=-0.0 size=N/A time=00:12:10.93 bitrate=N/A speed=2.96x    frame=17555 fps= 71 q=-0.0 size=N/A time=00:12:12.18 bitrate=N/A speed=2.96x    frame=17596 fps= 71 q=-0.0 size=N/A time=00:12:13.89 bitrate=N/A speed=2.96x    frame=17627 fps= 71 q=-0.0 size=N/A time=00:12:15.19 bitrate=N/A speed=2.96x    frame=17673 fps= 71 q=-0.0 size=N/A time=00:12:17.11 bitrate=N/A speed=2.96x    frame=17703 fps= 71 q=-0.0 size=N/A time=00:12:18.36 bitrate=N/A speed=2.96x    frame=17743 fps= 71 q=-0.0 size=N/A time=00:12:20.03 bitrate=N/A speed=2.96x    frame=17778 fps= 71 q=-0.0 size=N/A time=00:12:21.49 bitrate=N/A speed=2.96x    frame=17814 fps= 71 q=-0.0 size=N/A time=00:12:22.99 bitrate=N/A speed=2.96x    frame=17852 fps= 71 q=-0.0 size=N/A time=00:12:24.57 bitrate=N/A speed=2.96x    frame=17889 fps= 71 q=-0.0 size=N/A time=00:12:26.12 bitrate=N/A speed=2.96x    frame=17925 fps= 71 q=-0.0 size=N/A time=00:12:27.62 bitrate=N/A speed=2.96x    frame=17962 fps= 71 q=-0.0 size=N/A time=00:12:29.16 bitrate=N/A speed=2.96x    frame=17998 fps= 71 q=-0.0 size=N/A time=00:12:30.66 bitrate=N/A speed=2.96x    frame=18034 fps= 71 q=-0.0 size=N/A time=00:12:32.16 bitrate=N/A speed=2.96x    frame=18070 fps= 71 q=-0.0 size=N/A time=00:12:33.66 bitrate=N/A speed=2.96x    frame=18108 fps= 71 q=-0.0 size=N/A time=00:12:35.25 bitrate=N/A speed=2.96x    frame=18135 fps= 71 q=-0.0 size=N/A time=00:12:36.38 bitrate=N/A speed=2.96x    frame=18168 fps= 71 q=-0.0 size=N/A time=00:12:37.75 bitrate=N/A speed=2.96x    frame=18216 fps= 71 q=-0.0 size=N/A time=00:12:39.75 bitrate=N/A speed=2.96x    frame=18249 fps= 71 q=-0.0 size=N/A time=00:12:41.13 bitrate=N/A speed=2.96x    frame=18284 fps= 71 q=-0.0 size=N/A time=00:12:42.59 bitrate=N/A speed=2.96x    frame=18319 fps= 71 q=-0.0 size=N/A time=00:12:44.05 bitrate=N/A speed=2.96x    frame=18353 fps= 71 q=-0.0 size=N/A time=00:12:45.47 bitrate=N/A speed=2.96x    frame=18389 fps= 71 q=-0.0 size=N/A time=00:12:46.97 bitrate=N/A speed=2.96x    frame=18423 fps= 71 q=-0.0 size=N/A time=00:12:48.39 bitrate=N/A speed=2.96x    frame=18458 fps= 71 q=-0.0 size=N/A time=00:12:49.85 bitrate=N/A speed=2.96x    frame=18493 fps= 71 q=-0.0 size=N/A time=00:12:51.31 bitrate=N/A speed=2.96x    frame=18530 fps= 71 q=-0.0 size=N/A time=00:12:52.85 bitrate=N/A speed=2.96x    frame=18565 fps= 71 q=-0.0 size=N/A time=00:12:54.31 bitrate=N/A speed=2.96x    frame=18600 fps= 71 q=-0.0 size=N/A time=00:12:55.77 bitrate=N/A speed=2.96x    frame=18634 fps= 71 q=-0.0 size=N/A time=00:12:57.19 bitrate=N/A speed=2.96x    frame=18671 fps= 71 q=-0.0 size=N/A time=00:12:58.73 bitrate=N/A speed=2.96x    frame=18708 fps= 71 q=-0.0 size=N/A time=00:13:00.27 bitrate=N/A speed=2.96x    frame=18739 fps= 71 q=-0.0 size=N/A time=00:13:01.57 bitrate=N/A speed=2.96x    frame=18776 fps= 71 q=-0.0 size=N/A time=00:13:03.11 bitrate=N/A speed=2.96x    frame=18808 fps= 71 q=-0.0 size=N/A time=00:13:04.45 bitrate=N/A speed=2.96x    frame=18856 fps= 71 q=-0.0 size=N/A time=00:13:06.45 bitrate=N/A speed=2.96x    frame=18892 fps= 71 q=-0.0 size=N/A time=00:13:07.95 bitrate=N/A speed=2.96x    frame=18928 fps= 71 q=-0.0 size=N/A time=00:13:09.45 bitrate=N/A speed=2.96x    frame=18961 fps= 71 q=-0.0 size=N/A time=00:13:10.83 bitrate=N/A speed=2.96x    frame=18998 fps= 71 q=-0.0 size=N/A time=00:13:12.37 bitrate=N/A speed=2.96x    frame=19036 fps= 71 q=-0.0 size=N/A time=00:13:13.95 bitrate=N/A speed=2.96x    frame=19073 fps= 71 q=-0.0 size=N/A time=00:13:15.50 bitrate=N/A speed=2.96x    frame=19107 fps= 71 q=-0.0 size=N/A time=00:13:16.92 bitrate=N/A speed=2.96x    frame=19143 fps= 71 q=-0.0 size=N/A time=00:13:18.42 bitrate=N/A speed=2.96x    frame=19178 fps= 71 q=-0.0 size=N/A time=00:13:19.88 bitrate=N/A speed=2.96x    frame=19215 fps= 71 q=-0.0 size=N/A time=00:13:21.42 bitrate=N/A speed=2.96x    frame=19250 fps= 71 q=-0.0 size=N/A time=00:13:22.88 bitrate=N/A speed=2.96x    frame=19286 fps= 71 q=-0.0 size=N/A time=00:13:24.38 bitrate=N/A speed=2.96x    frame=19323 fps= 71 q=-0.0 size=N/A time=00:13:25.93 bitrate=N/A speed=2.96x    frame=19358 fps= 71 q=-0.0 size=N/A time=00:13:27.38 bitrate=N/A speed=2.96x    frame=19395 fps= 71 q=-0.0 size=N/A time=00:13:28.93 bitrate=N/A speed=2.96x    frame=19433 fps= 71 q=-0.0 size=N/A time=00:13:30.51 bitrate=N/A speed=2.96x    frame=19470 fps= 71 q=-0.0 size=N/A time=00:13:32.06 bitrate=N/A speed=2.96x    frame=19507 fps= 71 q=-0.0 size=N/A time=00:13:33.60 bitrate=N/A speed=2.96x    frame=19544 fps= 71 q=-0.0 size=N/A time=00:13:35.14 bitrate=N/A speed=2.96x    frame=19579 fps= 71 q=-0.0 size=N/A time=00:13:36.60 bitrate=N/A speed=2.96x    frame=19618 fps= 71 q=-0.0 size=N/A time=00:13:38.23 bitrate=N/A speed=2.96x    frame=19653 fps= 71 q=-0.0 size=N/A time=00:13:39.69 bitrate=N/A speed=2.96x    frame=19690 fps= 71 q=-0.0 size=N/A time=00:13:41.23 bitrate=N/A speed=2.96x    frame=19724 fps= 71 q=-0.0 size=N/A time=00:13:42.65 bitrate=N/A speed=2.96x    frame=19750 fps= 71 q=-0.0 size=N/A time=00:13:43.73 bitrate=N/A speed=2.96x    frame=19799 fps= 71 q=-0.0 size=N/A time=00:13:45.78 bitrate=N/A speed=2.96x    frame=19835 fps= 71 q=-0.0 size=N/A time=00:13:47.28 bitrate=N/A speed=2.96x    frame=19872 fps= 71 q=-0.0 size=N/A time=00:13:48.82 bitrate=N/A speed=2.96x    frame=19909 fps= 71 q=-0.0 size=N/A time=00:13:50.37 bitrate=N/A speed=2.96x    frame=19937 fps= 71 q=-0.0 size=N/A time=00:13:51.53 bitrate=N/A speed=2.96x    frame=19982 fps= 71 q=-0.0 size=N/A time=00:13:53.41 bitrate=N/A speed=2.96x    frame=20017 fps= 71 q=-0.0 size=N/A time=00:13:54.87 bitrate=N/A speed=2.96x    frame=20054 fps= 71 q=-0.0 size=N/A time=00:13:56.41 bitrate=N/A speed=2.96x    frame=20084 fps= 71 q=-0.0 size=N/A time=00:13:57.67 bitrate=N/A speed=2.96x    frame=20127 fps= 71 q=-0.0 size=N/A time=00:13:59.46 bitrate=N/A speed=2.96x    frame=20164 fps= 71 q=-0.0 size=N/A time=00:14:01.00 bitrate=N/A speed=2.96x    frame=20195 fps= 71 q=-0.0 size=N/A time=00:14:02.29 bitrate=N/A speed=2.96x    frame=20241 fps= 71 q=-0.0 size=N/A time=00:14:04.21 bitrate=N/A speed=2.96x    frame=20273 fps= 71 q=-0.0 size=N/A time=00:14:05.55 bitrate=N/A speed=2.96x    frame=20309 fps= 71 q=-0.0 size=N/A time=00:14:07.05 bitrate=N/A speed=2.96x    frame=20352 fps= 71 q=-0.0 size=N/A time=00:14:08.84 bitrate=N/A speed=2.96x    frame=20389 fps= 71 q=-0.0 size=N/A time=00:14:10.39 bitrate=N/A speed=2.96x    frame=20427 fps= 71 q=-0.0 size=N/A time=00:14:11.97 bitrate=N/A speed=2.96x    frame=20461 fps= 71 q=-0.0 size=N/A time=00:14:13.39 bitrate=N/A speed=2.96x    frame=20501 fps= 71 q=-0.0 size=N/A time=00:14:15.06 bitrate=N/A speed=2.96x    frame=20540 fps= 71 q=-0.0 size=N/A time=00:14:16.68 bitrate=N/A speed=2.96x    frame=20567 fps= 71 q=-0.0 size=N/A time=00:14:17.81 bitrate=N/A speed=2.96x    frame=20613 fps= 71 q=-0.0 size=N/A time=00:14:19.73 bitrate=N/A speed=2.96x    frame=20648 fps= 71 q=-0.0 size=N/A time=00:14:21.19 bitrate=N/A speed=2.96x    frame=20683 fps= 71 q=-0.0 size=N/A time=00:14:22.65 bitrate=N/A speed=2.96x    frame=20721 fps= 71 q=-0.0 size=N/A time=00:14:24.23 bitrate=N/A speed=2.96x    frame=20755 fps= 71 q=-0.0 size=N/A time=00:14:25.65 bitrate=N/A speed=2.96x    frame=20791 fps= 71 q=-0.0 size=N/A time=00:14:27.15 bitrate=N/A speed=2.96x    frame=20826 fps= 71 q=-0.0 size=N/A time=00:14:28.61 bitrate=N/A speed=2.96x    frame=20865 fps= 71 q=-0.0 size=N/A time=00:14:30.24 bitrate=N/A speed=2.96x    frame=20904 fps= 71 q=-0.0 size=N/A time=00:14:31.87 bitrate=N/A speed=2.96x    frame=20941 fps= 71 q=-0.0 size=N/A time=00:14:33.41 bitrate=N/A speed=2.96x    frame=20978 fps= 71 q=-0.0 size=N/A time=00:14:34.95 bitrate=N/A speed=2.96x    frame=21014 fps= 71 q=-0.0 size=N/A time=00:14:36.45 bitrate=N/A speed=2.96x    frame=21051 fps= 71 q=-0.0 size=N/A time=00:14:38.00 bitrate=N/A speed=2.96x    frame=21088 fps= 71 q=-0.0 size=N/A time=00:14:39.54 bitrate=N/A speed=2.96x    frame=21126 fps= 71 q=-0.0 size=N/A time=00:14:41.13 bitrate=N/A speed=2.96x    frame=21163 fps= 71 q=-0.0 size=N/A time=00:14:42.67 bitrate=N/A speed=2.96x    frame=21200 fps= 71 q=-0.0 size=N/A time=00:14:44.21 bitrate=N/A speed=2.96x    frame=21238 fps= 71 q=-0.0 size=N/A time=00:14:45.80 bitrate=N/A speed=2.96x    frame=21276 fps= 71 q=-0.0 size=N/A time=00:14:47.38 bitrate=N/A speed=2.96x    frame=21314 fps= 71 q=-0.0 size=N/A time=00:14:48.97 bitrate=N/A speed=2.96x    frame=21341 fps= 71 q=-0.0 size=N/A time=00:14:50.09 bitrate=N/A speed=2.96x    frame=21383 fps= 71 q=-0.0 size=N/A time=00:14:51.84 bitrate=N/A speed=2.96x    frame=21424 fps= 71 q=-0.0 size=N/A time=00:14:53.55 bitrate=N/A speed=2.96x    frame=21462 fps= 71 q=-0.0 size=N/A time=00:14:55.14 bitrate=N/A speed=2.96x    frame=21500 fps= 71 q=-0.0 size=N/A time=00:14:56.72 bitrate=N/A speed=2.96x    frame=21535 fps= 71 q=-0.0 size=N/A time=00:14:58.18 bitrate=N/A speed=2.96x    frame=21573 fps= 71 q=-0.0 size=N/A time=00:14:59.77 bitrate=N/A speed=2.96x    frame=21609 fps= 71 q=-0.0 size=N/A time=00:15:01.27 bitrate=N/A speed=2.96x    frame=21646 fps= 71 q=-0.0 size=N/A time=00:15:02.81 bitrate=N/A speed=2.96x    frame=21683 fps= 71 q=-0.0 size=N/A time=00:15:04.36 bitrate=N/A speed=2.96x    frame=21717 fps= 71 q=-0.0 size=N/A time=00:15:05.77 bitrate=N/A speed=2.96x    frame=21755 fps= 71 q=-0.0 size=N/A time=00:15:07.36 bitrate=N/A speed=2.96x    frame=21792 fps= 71 q=-0.0 size=N/A time=00:15:08.90 bitrate=N/A speed=2.96x    frame=21823 fps= 71 q=-0.0 size=N/A time=00:15:10.20 bitrate=N/A speed=2.96x    frame=21865 fps= 71 q=-0.0 size=N/A time=00:15:11.95 bitrate=N/A speed=2.96x    frame=21905 fps= 71 q=-0.0 size=N/A time=00:15:13.62 bitrate=N/A speed=2.96x    frame=21941 fps= 71 q=-0.0 size=N/A time=00:15:15.12 bitrate=N/A speed=2.96x    frame=21980 fps= 71 q=-0.0 size=N/A time=00:15:16.74 bitrate=N/A speed=2.96x    frame=22013 fps= 71 q=-0.0 size=N/A time=00:15:18.12 bitrate=N/A speed=2.96x    frame=22048 fps= 71 q=-0.0 size=N/A time=00:15:19.58 bitrate=N/A speed=2.96x    frame=22088 fps= 71 q=-0.0 size=N/A time=00:15:21.25 bitrate=N/A speed=2.96x    frame=22125 fps= 71 q=-0.0 size=N/A time=00:15:22.79 bitrate=N/A speed=2.96x    frame=22161 fps= 71 q=-0.0 size=N/A time=00:15:24.29 bitrate=N/A speed=2.96x    frame=22199 fps= 71 q=-0.0 size=N/A time=00:15:25.88 bitrate=N/A speed=2.96x    frame=22235 fps= 71 q=-0.0 size=N/A time=00:15:27.38 bitrate=N/A speed=2.96x    frame=22275 fps= 71 q=-0.0 size=N/A time=00:15:29.05 bitrate=N/A speed=2.96x    frame=22305 fps= 71 q=-0.0 size=N/A time=00:15:30.30 bitrate=N/A speed=2.96x    frame=22340 fps= 71 q=-0.0 size=N/A time=00:15:31.76 bitrate=N/A speed=2.96x    frame=22389 fps= 71 q=-0.0 size=N/A time=00:15:33.80 bitrate=N/A speed=2.96x    frame=22421 fps= 71 q=-0.0 size=N/A time=00:15:35.14 bitrate=N/A speed=2.96x    frame=22463 fps= 71 q=-0.0 size=N/A time=00:15:36.89 bitrate=N/A speed=2.96x    frame=22501 fps= 71 q=-0.0 size=N/A time=00:15:38.47 bitrate=N/A speed=2.96x    frame=22537 fps= 71 q=-0.0 size=N/A time=00:15:39.98 bitrate=N/A speed=2.96x    frame=22570 fps= 71 q=-0.0 size=N/A time=00:15:41.35 bitrate=N/A speed=2.96x    frame=22607 fps= 71 q=-0.0 size=N/A time=00:15:42.90 bitrate=N/A speed=2.96x    frame=22650 fps= 71 q=-0.0 size=N/A time=00:15:44.69 bitrate=N/A speed=2.96x    frame=22686 fps= 71 q=-0.0 size=N/A time=00:15:46.19 bitrate=N/A speed=2.96x    frame=22723 fps= 71 q=-0.0 size=N/A time=00:15:47.73 bitrate=N/A speed=2.96x    frame=22760 fps= 71 q=-0.0 size=N/A time=00:15:49.28 bitrate=N/A speed=2.96x    frame=22795 fps= 71 q=-0.0 size=N/A time=00:15:50.74 bitrate=N/A speed=2.96x    frame=22837 fps= 71 q=-0.0 size=N/A time=00:15:52.49 bitrate=N/A speed=2.96x    frame=22875 fps= 71 q=-0.0 size=N/A time=00:15:54.07 bitrate=N/A speed=2.96x    frame=22906 fps= 71 q=-0.0 size=N/A time=00:15:55.37 bitrate=N/A speed=2.96x    frame=22952 fps= 71 q=-0.0 size=N/A time=00:15:57.28 bitrate=N/A speed=2.96x    frame=22989 fps= 71 q=-0.0 size=N/A time=00:15:58.83 bitrate=N/A speed=2.96x    frame=23025 fps= 71 q=-0.0 size=N/A time=00:16:00.33 bitrate=N/A speed=2.96x    frame=23060 fps= 71 q=-0.0 size=N/A time=00:16:01.79 bitrate=N/A speed=2.96x    frame=23100 fps= 71 q=-0.0 size=N/A time=00:16:03.46 bitrate=N/A speed=2.96x    frame=23137 fps= 71 q=-0.0 size=N/A time=00:16:05.00 bitrate=N/A speed=2.96x    frame=23165 fps= 71 q=-0.0 size=N/A time=00:16:06.17 bitrate=N/A speed=2.96x    frame=23211 fps= 71 q=-0.0 size=N/A time=00:16:08.09 bitrate=N/A speed=2.96x    frame=23248 fps= 71 q=-0.0 size=N/A time=00:16:09.63 bitrate=N/A speed=2.96x    frame=23283 fps= 71 q=-0.0 size=N/A time=00:16:11.09 bitrate=N/A speed=2.96x    frame=23323 fps= 71 q=-0.0 size=N/A time=00:16:12.76 bitrate=N/A speed=2.96x    frame=23363 fps= 71 q=-0.0 size=N/A time=00:16:14.43 bitrate=N/A speed=2.96x    frame=23400 fps= 71 q=-0.0 size=N/A time=00:16:15.97 bitrate=N/A speed=2.96x    frame=23438 fps= 71 q=-0.0 size=N/A time=00:16:17.55 bitrate=N/A speed=2.96x    frame=23476 fps= 71 q=-0.0 size=N/A time=00:16:19.14 bitrate=N/A speed=2.96x    frame=23511 fps= 71 q=-0.0 size=N/A time=00:16:20.60 bitrate=N/A speed=2.96x    frame=23547 fps= 71 q=-0.0 size=N/A time=00:16:22.10 bitrate=N/A speed=2.96x    frame=23578 fps= 71 q=-0.0 size=N/A time=00:16:23.39 bitrate=N/A speed=2.96x    frame=23628 fps= 71 q=-0.0 size=N/A time=00:16:25.48 bitrate=N/A speed=2.97x    frame=23664 fps= 71 q=-0.0 size=N/A time=00:16:26.98 bitrate=N/A speed=2.97x    frame=23701 fps= 71 q=-0.0 size=N/A time=00:16:28.52 bitrate=N/A speed=2.97x    frame=23739 fps= 71 q=-0.0 size=N/A time=00:16:30.11 bitrate=N/A speed=2.97x    frame=23776 fps= 71 q=-0.0 size=N/A time=00:16:31.65 bitrate=N/A speed=2.97x    frame=23813 fps= 71 q=-0.0 size=N/A time=00:16:33.20 bitrate=N/A speed=2.97x    frame=23851 fps= 71 q=-0.0 size=N/A time=00:16:34.78 bitrate=N/A speed=2.97x    frame=23890 fps= 71 q=-0.0 size=N/A time=00:16:36.41 bitrate=N/A speed=2.97x    frame=23919 fps= 71 q=-0.0 size=N/A time=00:16:37.62 bitrate=N/A speed=2.97x    frame=23965 fps= 71 q=-0.0 size=N/A time=00:16:39.54 bitrate=N/A speed=2.97x    frame=24002 fps= 71 q=-0.0 size=N/A time=00:16:41.08 bitrate=N/A speed=2.97x    frame=24038 fps= 71 q=-0.0 size=N/A time=00:16:42.58 bitrate=N/A speed=2.97x    frame=24075 fps= 71 q=-0.0 size=N/A time=00:16:44.12 bitrate=N/A speed=2.97x    frame=24112 fps= 71 q=-0.0 size=N/A time=00:16:45.67 bitrate=N/A speed=2.97x    frame=24150 fps= 71 q=-0.0 size=N/A time=00:16:47.25 bitrate=N/A speed=2.97x    frame=24187 fps= 71 q=-0.0 size=N/A time=00:16:48.79 bitrate=N/A speed=2.97x    frame=24224 fps= 71 q=-0.0 size=N/A time=00:16:50.34 bitrate=N/A speed=2.97x    frame=24261 fps= 71 q=-0.0 size=N/A time=00:16:51.88 bitrate=N/A speed=2.97x    frame=24298 fps= 71 q=-0.0 size=N/A time=00:16:53.42 bitrate=N/A speed=2.97x    frame=24336 fps= 71 q=-0.0 size=N/A time=00:16:55.01 bitrate=N/A speed=2.97x    frame=24367 fps= 71 q=-0.0 size=N/A time=00:16:56.30 bitrate=N/A speed=2.97x    frame=24408 fps= 71 q=-0.0 size=N/A time=00:16:58.01 bitrate=N/A speed=2.97x    frame=24447 fps= 71 q=-0.0 size=N/A time=00:16:59.64 bitrate=N/A speed=2.97x    frame=24485 fps= 71 q=-0.0 size=N/A time=00:17:01.22 bitrate=N/A speed=2.97x    frame=24522 fps= 71 q=-0.0 size=N/A time=00:17:02.77 bitrate=N/A speed=2.97x    frame=24561 fps= 71 q=-0.0 size=N/A time=00:17:04.39 bitrate=N/A speed=2.97x    frame=24592 fps= 71 q=-0.0 size=N/A time=00:17:05.69 bitrate=N/A speed=2.97x    frame=24629 fps= 71 q=-0.0 size=N/A time=00:17:07.23 bitrate=N/A speed=2.97x    frame=24669 fps= 71 q=-0.0 size=N/A time=00:17:08.90 bitrate=N/A speed=2.97x    frame=24708 fps= 71 q=-0.0 size=N/A time=00:17:10.52 bitrate=N/A speed=2.97x    frame=24749 fps= 71 q=-0.0 size=N/A time=00:17:12.23 bitrate=N/A speed=2.97x    frame=24788 fps= 71 q=-0.0 size=N/A time=00:17:13.86 bitrate=N/A speed=2.97x    frame=24820 fps= 71 q=-0.0 size=N/A time=00:17:15.20 bitrate=N/A speed=2.97x    frame=24863 fps= 71 q=-0.0 size=N/A time=00:17:16.99 bitrate=N/A speed=2.97x    frame=24901 fps= 71 q=-0.0 size=N/A time=00:17:18.57 bitrate=N/A speed=2.97x    frame=24937 fps= 71 q=-0.0 size=N/A time=00:17:20.08 bitrate=N/A speed=2.97x    frame=24977 fps= 71 q=-0.0 size=N/A time=00:17:21.74 bitrate=N/A speed=2.97x    frame=25016 fps= 71 q=-0.0 size=N/A time=00:17:23.37 bitrate=N/A speed=2.97x    frame=25054 fps= 71 q=-0.0 size=N/A time=00:17:24.96 bitrate=N/A speed=2.97x    frame=25091 fps= 71 q=-0.0 size=N/A time=00:17:26.50 bitrate=N/A speed=2.97x    frame=25128 fps= 71 q=-0.0 size=N/A time=00:17:28.04 bitrate=N/A speed=2.97x    frame=25167 fps= 71 q=-0.0 size=N/A time=00:17:29.67 bitrate=N/A speed=2.97x    frame=25202 fps= 71 q=-0.0 size=N/A time=00:17:31.13 bitrate=N/A speed=2.97x    frame=25237 fps= 71 q=-0.0 size=N/A time=00:17:32.59 bitrate=N/A speed=2.97x    frame=25281 fps= 71 q=-0.0 size=N/A time=00:17:34.42 bitrate=N/A speed=2.97x    frame=25319 fps= 71 q=-0.0 size=N/A time=00:17:36.01 bitrate=N/A speed=2.97x    frame=25358 fps= 71 q=-0.0 size=N/A time=00:17:37.63 bitrate=N/A speed=2.97x    frame=25396 fps= 71 q=-0.0 size=N/A time=00:17:39.22 bitrate=N/A speed=2.97x    frame=25433 fps= 71 q=-0.0 size=N/A time=00:17:40.76 bitrate=N/A speed=2.97x    frame=25471 fps= 71 q=-0.0 size=N/A time=00:17:42.35 bitrate=N/A speed=2.97x    frame=25507 fps= 71 q=-0.0 size=N/A time=00:17:43.85 bitrate=N/A speed=2.97x    frame=25546 fps= 71 q=-0.0 size=N/A time=00:17:45.48 bitrate=N/A speed=2.97x    frame=25579 fps= 71 q=-0.0 size=N/A time=00:17:46.85 bitrate=N/A speed=2.97x    frame=25620 fps= 71 q=-0.0 size=N/A time=00:17:48.56 bitrate=N/A speed=2.97x    frame=25658 fps= 71 q=-0.0 size=N/A time=00:17:50.15 bitrate=N/A speed=2.97x    frame=25688 fps= 71 q=-0.0 size=N/A time=00:17:51.40 bitrate=N/A speed=2.97x    frame=25734 fps= 71 q=-0.0 size=N/A time=00:17:53.32 bitrate=N/A speed=2.97x    frame=25772 fps= 71 q=-0.0 size=N/A time=00:17:54.90 bitrate=N/A speed=2.97x    frame=25807 fps= 71 q=-0.0 size=N/A time=00:17:56.36 bitrate=N/A speed=2.97x    frame=25842 fps= 71 q=-0.0 size=N/A time=00:17:57.82 bitrate=N/A speed=2.97x    frame=25872 fps= 71 q=-0.0 size=N/A time=00:17:59.07 bitrate=N/A speed=2.97x    frame=25920 fps= 71 q=-0.0 size=N/A time=00:18:01.08 bitrate=N/A speed=2.97x    frame=25951 fps= 71 q=-0.0 size=N/A time=00:18:02.37 bitrate=N/A speed=2.97x    frame=25990 fps= 71 q=-0.0 size=N/A time=00:18:03.99 bitrate=N/A speed=2.97x    frame=26038 fps= 71 q=-0.0 size=N/A time=00:18:06.00 bitrate=N/A speed=2.97x    frame=26075 fps= 71 q=-0.0 size=N/A time=00:18:07.54 bitrate=N/A speed=2.97x    frame=26114 fps= 71 q=-0.0 size=N/A time=00:18:09.17 bitrate=N/A speed=2.97x    frame=26152 fps= 71 q=-0.0 size=N/A time=00:18:10.75 bitrate=N/A speed=2.97x    frame=26190 fps= 71 q=-0.0 size=N/A time=00:18:12.34 bitrate=N/A speed=2.97x    frame=26227 fps= 71 q=-0.0 size=N/A time=00:18:13.88 bitrate=N/A speed=2.97x    frame=26265 fps= 71 q=-0.0 size=N/A time=00:18:15.46 bitrate=N/A speed=2.97x    frame=26303 fps= 71 q=-0.0 size=N/A time=00:18:17.05 bitrate=N/A speed=2.97x    frame=26339 fps= 71 q=-0.0 size=N/A time=00:18:18.55 bitrate=N/A speed=2.97x    frame=26378 fps= 71 q=-0.0 size=N/A time=00:18:20.18 bitrate=N/A speed=2.97x    frame=26416 fps= 71 q=-0.0 size=N/A time=00:18:21.76 bitrate=N/A speed=2.97x    frame=26455 fps= 71 q=-0.0 size=N/A time=00:18:23.39 bitrate=N/A speed=2.97x    frame=26493 fps= 71 q=-0.0 size=N/A time=00:18:24.97 bitrate=N/A speed=2.97x    frame=26532 fps= 71 q=-0.0 size=N/A time=00:18:26.60 bitrate=N/A speed=2.97x    frame=26564 fps= 71 q=-0.0 size=N/A time=00:18:27.94 bitrate=N/A speed=2.97x    frame=26608 fps= 71 q=-0.0 size=N/A time=00:18:29.77 bitrate=N/A speed=2.97x    frame=26645 fps= 71 q=-0.0 size=N/A time=00:18:31.31 bitrate=N/A speed=2.97x    frame=26683 fps= 71 q=-0.0 size=N/A time=00:18:32.90 bitrate=N/A speed=2.97x    frame=26720 fps= 71 q=-0.0 size=N/A time=00:18:34.44 bitrate=N/A speed=2.97x    frame=26758 fps= 71 q=-0.0 size=N/A time=00:18:36.03 bitrate=N/A speed=2.97x    frame=26796 fps= 71 q=-0.0 size=N/A time=00:18:37.61 bitrate=N/A speed=2.97x    frame=26830 fps= 71 q=-0.0 size=N/A time=00:18:39.03 bitrate=N/A speed=2.97x    frame=26870 fps= 71 q=-0.0 size=N/A time=00:18:40.70 bitrate=N/A speed=2.97x    frame=26904 fps= 71 q=-0.0 size=N/A time=00:18:42.12 bitrate=N/A speed=2.97x    frame=26945 fps= 71 q=-0.0 size=N/A time=00:18:43.83 bitrate=N/A speed=2.97x    frame=26972 fps= 71 q=-0.0 size=N/A time=00:18:44.95 bitrate=N/A speed=2.97x    frame=27019 fps= 71 q=-0.0 size=N/A time=00:18:46.91 bitrate=N/A speed=2.97x    frame=27046 fps= 71 q=-0.0 size=N/A time=00:18:48.04 bitrate=N/A speed=2.97x    frame=27092 fps= 71 q=-0.0 size=N/A time=00:18:49.96 bitrate=N/A speed=2.97x    frame=27129 fps= 71 q=-0.0 size=N/A time=00:18:51.50 bitrate=N/A speed=2.97x    frame=27161 fps= 71 q=-0.0 size=N/A time=00:18:52.84 bitrate=N/A speed=2.97x    frame=27203 fps= 71 q=-0.0 size=N/A time=00:18:54.59 bitrate=N/A speed=2.97x    frame=27240 fps= 71 q=-0.0 size=N/A time=00:18:56.13 bitrate=N/A speed=2.98x    frame=27269 fps= 71 q=-0.0 size=N/A time=00:18:57.34 bitrate=N/A speed=2.97x    frame=27316 fps= 71 q=-0.0 size=N/A time=00:18:59.30 bitrate=N/A speed=2.98x    frame=27351 fps= 71 q=-0.0 size=N/A time=00:19:00.76 bitrate=N/A speed=2.98x    frame=27390 fps= 71 q=-0.0 size=N/A time=00:19:02.39 bitrate=N/A speed=2.98x    frame=27428 fps= 71 q=-0.0 size=N/A time=00:19:03.97 bitrate=N/A speed=2.98x    frame=27459 fps= 71 q=-0.0 size=N/A time=00:19:05.26 bitrate=N/A speed=2.97x    frame=27503 fps= 71 q=-0.0 size=N/A time=00:19:07.10 bitrate=N/A speed=2.98x    frame=27541 fps= 71 q=-0.0 size=N/A time=00:19:08.68 bitrate=N/A speed=2.98x    frame=27577 fps= 71 q=-0.0 size=N/A time=00:19:10.19 bitrate=N/A speed=2.98x    frame=27614 fps= 71 q=-0.0 size=N/A time=00:19:11.73 bitrate=N/A speed=2.98x    frame=27651 fps= 71 q=-0.0 size=N/A time=00:19:13.27 bitrate=N/A speed=2.98x    frame=27689 fps= 71 q=-0.0 size=N/A time=00:19:14.86 bitrate=N/A speed=2.98x    frame=27724 fps= 71 q=-0.0 size=N/A time=00:19:16.32 bitrate=N/A speed=2.98x    frame=27761 fps= 71 q=-0.0 size=N/A time=00:19:17.86 bitrate=N/A speed=2.98x    frame=27799 fps= 71 q=-0.0 size=N/A time=00:19:19.44 bitrate=N/A speed=2.98x    frame=27835 fps= 71 q=-0.0 size=N/A time=00:19:20.95 bitrate=N/A speed=2.98x    frame=27870 fps= 71 q=-0.0 size=N/A time=00:19:22.41 bitrate=N/A speed=2.98x    frame=27905 fps= 71 q=-0.0 size=N/A time=00:19:23.87 bitrate=N/A speed=2.98x    frame=27933 fps= 71 q=-0.0 size=N/A time=00:19:25.03 bitrate=N/A speed=2.97x    frame=27979 fps= 71 q=-0.0 size=N/A time=00:19:26.95 bitrate=N/A speed=2.98x    frame=28010 fps= 71 q=-0.0 size=N/A time=00:19:28.25 bitrate=N/A speed=2.97x    frame=28052 fps= 71 q=-0.0 size=N/A time=00:19:30.00 bitrate=N/A speed=2.98x    frame=28092 fps= 71 q=-0.0 size=N/A time=00:19:31.67 bitrate=N/A speed=2.98x    frame=28126 fps= 71 q=-0.0 size=N/A time=00:19:33.08 bitrate=N/A speed=2.98x    frame=28156 fps= 71 q=-0.0 size=N/A time=00:19:34.33 bitrate=N/A speed=2.97x    frame=28184 fps= 71 q=-0.0 size=N/A time=00:19:35.50 bitrate=N/A speed=2.97x    frame=28235 fps= 71 q=-0.0 size=N/A time=00:19:37.63 bitrate=N/A speed=2.98x    frame=28270 fps= 71 q=-0.0 size=N/A time=00:19:39.09 bitrate=N/A speed=2.98x    frame=28310 fps= 71 q=-0.0 size=N/A time=00:19:40.76 bitrate=N/A speed=2.98x    frame=28341 fps= 71 q=-0.0 size=N/A time=00:19:42.05 bitrate=N/A speed=2.97x    frame=28379 fps= 71 q=-0.0 size=N/A time=00:19:43.64 bitrate=N/A speed=2.97x    frame=28416 fps= 71 q=-0.0 size=N/A time=00:19:45.18 bitrate=N/A speed=2.97x    frame=28458 fps= 71 q=-0.0 size=N/A time=00:19:46.93 bitrate=N/A speed=2.98x    frame=28495 fps= 71 q=-0.0 size=N/A time=00:19:48.47 bitrate=N/A speed=2.98x    frame=28526 fps= 71 q=-0.0 size=N/A time=00:19:49.77 bitrate=N/A speed=2.97x    frame=28566 fps= 71 q=-0.0 size=N/A time=00:19:51.44 bitrate=N/A speed=2.98x    frame=28604 fps= 71 q=-0.0 size=N/A time=00:19:53.02 bitrate=N/A speed=2.98x    frame=28635 fps= 71 q=-0.0 size=N/A time=00:19:54.31 bitrate=N/A speed=2.97x    frame=28677 fps= 71 q=-0.0 size=N/A time=00:19:56.06 bitrate=N/A speed=2.98x    frame=28708 fps= 71 q=-0.0 size=N/A time=00:19:57.36 bitrate=N/A speed=2.97x    frame=28749 fps= 71 q=-0.0 size=N/A time=00:19:59.07 bitrate=N/A speed=2.98x    frame=28787 fps= 71 q=-0.0 size=N/A time=00:20:00.65 bitrate=N/A speed=2.98x    frame=28824 fps= 71 q=-0.0 size=N/A time=00:20:02.20 bitrate=N/A speed=2.98x    frame=28861 fps= 71 q=-0.0 size=N/A time=00:20:03.74 bitrate=N/A speed=2.98x    frame=28899 fps= 71 q=-0.0 size=N/A time=00:20:05.32 bitrate=N/A speed=2.98x    frame=28937 fps= 71 q=-0.0 size=N/A time=00:20:06.91 bitrate=N/A speed=2.98x    frame=28974 fps= 71 q=-0.0 size=N/A time=00:20:08.45 bitrate=N/A speed=2.98x    frame=28999 fps= 71 q=-0.0 size=N/A time=00:20:09.49 bitrate=N/A speed=2.97x    frame=29050 fps= 71 q=-0.0 size=N/A time=00:20:11.62 bitrate=N/A speed=2.98x    frame=29088 fps= 71 q=-0.0 size=N/A time=00:20:13.21 bitrate=N/A speed=2.98x    frame=29125 fps= 71 q=-0.0 size=N/A time=00:20:14.75 bitrate=N/A speed=2.98x    frame=29162 fps= 71 q=-0.0 size=N/A time=00:20:16.29 bitrate=N/A speed=2.98x    frame=29200 fps= 71 q=-0.0 size=N/A time=00:20:17.88 bitrate=N/A speed=2.98x    frame=29232 fps= 71 q=-0.0 size=N/A time=00:20:19.21 bitrate=N/A speed=2.98x    frame=29270 fps= 71 q=-0.0 size=N/A time=00:20:20.80 bitrate=N/A speed=2.98x    frame=29307 fps= 71 q=-0.0 size=N/A time=00:20:22.34 bitrate=N/A speed=2.98x    frame=29343 fps= 71 q=-0.0 size=N/A time=00:20:23.84 bitrate=N/A speed=2.98x    frame=29377 fps= 71 q=-0.0 size=N/A time=00:20:25.26 bitrate=N/A speed=2.98x    frame=29416 fps= 71 q=-0.0 size=N/A time=00:20:26.89 bitrate=N/A speed=2.98x    frame=29452 fps= 71 q=-0.0 size=N/A time=00:20:28.39 bitrate=N/A speed=2.98x    frame=29490 fps= 71 q=-0.0 size=N/A time=00:20:29.97 bitrate=N/A speed=2.98x    frame=29527 fps= 71 q=-0.0 size=N/A time=00:20:31.52 bitrate=N/A speed=2.98x    frame=29567 fps= 71 q=-0.0 size=N/A time=00:20:33.19 bitrate=N/A speed=2.98x    frame=29605 fps= 71 q=-0.0 size=N/A time=00:20:34.77 bitrate=N/A speed=2.98x    frame=29635 fps= 71 q=-0.0 size=N/A time=00:20:36.02 bitrate=N/A speed=2.98x    frame=29672 fps= 71 q=-0.0 size=N/A time=00:20:37.56 bitrate=N/A speed=2.98x    frame=29710 fps= 71 q=-0.0 size=N/A time=00:20:39.15 bitrate=N/A speed=2.98x    frame=29753 fps= 71 q=-0.0 size=N/A time=00:20:40.94 bitrate=N/A speed=2.98x    frame=29785 fps= 71 q=-0.0 size=N/A time=00:20:42.28 bitrate=N/A speed=2.98x    frame=29827 fps= 71 q=-0.0 size=N/A time=00:20:44.03 bitrate=N/A speed=2.98x    frame=29861 fps= 71 q=-0.0 size=N/A time=00:20:45.45 bitrate=N/A speed=2.98x    frame=29899 fps= 71 q=-0.0 size=N/A time=00:20:47.03 bitrate=N/A speed=2.98x    frame=29937 fps= 71 q=-0.0 size=N/A time=00:20:48.62 bitrate=N/A speed=2.98x    frame=29976 fps= 71 q=-0.0 size=N/A time=00:20:50.24 bitrate=N/A speed=2.98x    frame=30013 fps= 71 q=-0.0 size=N/A time=00:20:51.79 bitrate=N/A speed=2.98x    frame=30051 fps= 71 q=-0.0 size=N/A time=00:20:53.37 bitrate=N/A speed=2.98x    frame=30087 fps= 71 q=-0.0 size=N/A time=00:20:54.87 bitrate=N/A speed=2.98x    frame=30125 fps= 71 q=-0.0 size=N/A time=00:20:56.46 bitrate=N/A speed=2.98x    frame=30161 fps= 71 q=-0.0 size=N/A time=00:20:57.96 bitrate=N/A speed=2.98x    frame=30196 fps= 71 q=-0.0 size=N/A time=00:20:59.42 bitrate=N/A speed=2.98x    frame=30233 fps= 71 q=-0.0 size=N/A time=00:21:00.96 bitrate=N/A speed=2.98x    frame=30273 fps= 71 q=-0.0 size=N/A time=00:21:02.63 bitrate=N/A speed=2.98x    frame=30307 fps= 71 q=-0.0 size=N/A time=00:21:04.05 bitrate=N/A speed=2.98x    frame=30346 fps= 71 q=-0.0 size=N/A time=00:21:05.68 bitrate=N/A speed=2.98x    frame=30382 fps= 71 q=-0.0 size=N/A time=00:21:07.18 bitrate=N/A speed=2.98x    frame=30420 fps= 71 q=-0.0 size=N/A time=00:21:08.76 bitrate=N/A speed=2.98x    frame=30457 fps= 71 q=-0.0 size=N/A time=00:21:10.31 bitrate=N/A speed=2.98x    frame=30493 fps= 71 q=-0.0 size=N/A time=00:21:11.81 bitrate=N/A speed=2.98x    frame=30530 fps= 71 q=-0.0 size=N/A time=00:21:13.35 bitrate=N/A speed=2.98x    frame=30564 fps= 71 q=-0.0 size=N/A time=00:21:14.77 bitrate=N/A speed=2.98x    frame=30599 fps= 71 q=-0.0 size=N/A time=00:21:16.23 bitrate=N/A speed=2.98x    frame=30632 fps= 71 q=-0.0 size=N/A time=00:21:17.60 bitrate=N/A speed=2.98x    frame=30672 fps= 71 q=-0.0 size=N/A time=00:21:19.27 bitrate=N/A speed=2.98x    frame=30709 fps= 71 q=-0.0 size=N/A time=00:21:20.82 bitrate=N/A speed=2.98x    frame=30745 fps= 71 q=-0.0 size=N/A time=00:21:22.32 bitrate=N/A speed=2.98x    frame=30783 fps= 71 q=-0.0 size=N/A time=00:21:23.90 bitrate=N/A speed=2.98x    frame=30821 fps= 71 q=-0.0 size=N/A time=00:21:25.49 bitrate=N/A speed=2.98x    frame=30858 fps= 71 q=-0.0 size=N/A time=00:21:27.03 bitrate=N/A speed=2.98x    frame=30897 fps= 71 q=-0.0 size=N/A time=00:21:28.66 bitrate=N/A speed=2.98x    frame=30934 fps= 71 q=-0.0 size=N/A time=00:21:30.20 bitrate=N/A speed=2.98x    frame=30972 fps= 71 q=-0.0 size=N/A time=00:21:31.79 bitrate=N/A speed=2.98x    frame=31009 fps= 71 q=-0.0 size=N/A time=00:21:33.33 bitrate=N/A speed=2.98x    frame=31043 fps= 71 q=-0.0 size=N/A time=00:21:34.75 bitrate=N/A speed=2.98x    frame=31078 fps= 71 q=-0.0 size=N/A time=00:21:36.21 bitrate=N/A speed=2.98x    frame=31121 fps= 71 q=-0.0 size=N/A time=00:21:38.00 bitrate=N/A speed=2.98x    frame=31160 fps= 71 q=-0.0 size=N/A time=00:21:39.63 bitrate=N/A speed=2.98x    frame=31198 fps= 71 q=-0.0 size=N/A time=00:21:41.21 bitrate=N/A speed=2.98x    frame=31228 fps= 71 q=-0.0 size=N/A time=00:21:42.46 bitrate=N/A speed=2.98x    frame=31271 fps= 71 q=-0.0 size=N/A time=00:21:44.26 bitrate=N/A speed=2.98x    frame=31308 fps= 71 q=-0.0 size=N/A time=00:21:45.80 bitrate=N/A speed=2.98x    frame=31346 fps= 71 q=-0.0 size=N/A time=00:21:47.38 bitrate=N/A speed=2.98x    frame=31382 fps= 71 q=-0.0 size=N/A time=00:21:48.89 bitrate=N/A speed=2.98x    frame=31419 fps= 71 q=-0.0 size=N/A time=00:21:50.43 bitrate=N/A speed=2.98x    frame=31455 fps= 71 q=-0.0 size=N/A time=00:21:51.93 bitrate=N/A speed=2.98x    frame=31492 fps= 71 q=-0.0 size=N/A time=00:21:53.47 bitrate=N/A speed=2.98x    frame=31525 fps= 71 q=-0.0 size=N/A time=00:21:54.85 bitrate=N/A speed=2.98x    frame=31557 fps= 71 q=-0.0 size=N/A time=00:21:56.18 bitrate=N/A speed=2.98x    frame=31601 fps= 71 q=-0.0 size=N/A time=00:21:58.02 bitrate=N/A speed=2.98x    frame=31639 fps= 71 q=-0.0 size=N/A time=00:21:59.60 bitrate=N/A speed=2.98x    frame=31678 fps= 71 q=-0.0 size=N/A time=00:22:01.23 bitrate=N/A speed=2.98x    frame=31709 fps= 71 q=-0.0 size=N/A time=00:22:02.52 bitrate=N/A speed=2.98x    frame=31742 fps= 71 q=-0.0 size=N/A time=00:22:03.90 bitrate=N/A speed=2.98x    frame=31790 fps= 71 q=-0.0 size=N/A time=00:22:05.90 bitrate=N/A speed=2.98x    frame=31817 fps= 71 q=-0.0 size=N/A time=00:22:07.03 bitrate=N/A speed=2.98x    frame=31863 fps= 71 q=-0.0 size=N/A time=00:22:08.95 bitrate=N/A speed=2.98x    frame=31902 fps= 71 q=-0.0 size=N/A time=00:22:10.57 bitrate=N/A speed=2.98x    frame=31939 fps= 71 q=-0.0 size=N/A time=00:22:12.12 bitrate=N/A speed=2.98x    frame=31975 fps= 71 q=-0.0 size=N/A time=00:22:13.62 bitrate=N/A speed=2.98x    frame=32015 fps= 71 q=-0.0 size=N/A time=00:22:15.29 bitrate=N/A speed=2.98x    frame=32052 fps= 71 q=-0.0 size=N/A time=00:22:16.83 bitrate=N/A speed=2.98x    frame=32088 fps= 71 q=-0.0 size=N/A time=00:22:18.33 bitrate=N/A speed=2.98x    frame=32126 fps= 71 q=-0.0 size=N/A time=00:22:19.92 bitrate=N/A speed=2.98x    frame=32159 fps= 71 q=-0.0 size=N/A time=00:22:21.29 bitrate=N/A speed=2.98x    frame=32196 fps= 71 q=-0.0 size=N/A time=00:22:22.84 bitrate=N/A speed=2.98x    frame=32241 fps= 71 q=-0.0 size=N/A time=00:22:24.71 bitrate=N/A speed=2.98x    frame=32278 fps= 71 q=-0.0 size=N/A time=00:22:26.26 bitrate=N/A speed=2.98x    frame=32315 fps= 71 q=-0.0 size=N/A time=00:22:27.80 bitrate=N/A speed=2.98x    frame=32349 fps= 71 q=-0.0 size=N/A time=00:22:29.22 bitrate=N/A speed=2.98x    frame=32388 fps= 71 q=-0.0 size=N/A time=00:22:30.84 bitrate=N/A speed=2.98x    frame=32426 fps= 71 q=-0.0 size=N/A time=00:22:32.43 bitrate=N/A speed=2.98x    frame=32465 fps= 71 q=-0.0 size=N/A time=00:22:34.06 bitrate=N/A speed=2.98x    frame=32504 fps= 71 q=-0.0 size=N/A time=00:22:35.68 bitrate=N/A speed=2.98x    frame=32541 fps= 71 q=-0.0 size=N/A time=00:22:37.23 bitrate=N/A speed=2.98x    frame=32580 fps= 71 q=-0.0 size=N/A time=00:22:38.85 bitrate=N/A speed=2.98x    frame=32610 fps= 71 q=-0.0 size=N/A time=00:22:40.10 bitrate=N/A speed=2.98x    frame=32645 fps= 71 q=-0.0 size=N/A time=00:22:41.56 bitrate=N/A speed=2.98x    frame=32689 fps= 71 q=-0.0 size=N/A time=00:22:43.40 bitrate=N/A speed=2.98x    frame=32724 fps= 71 q=-0.0 size=N/A time=00:22:44.86 bitrate=N/A speed=2.98x    frame=32761 fps= 71 q=-0.0 size=N/A time=00:22:46.40 bitrate=N/A speed=2.98x    frame=32800 fps= 71 q=-0.0 size=N/A time=00:22:48.03 bitrate=N/A speed=2.98x    frame=32837 fps= 71 q=-0.0 size=N/A time=00:22:49.57 bitrate=N/A speed=2.98x    frame=32875 fps= 71 q=-0.0 size=N/A time=00:22:51.16 bitrate=N/A speed=2.98x    frame=32906 fps= 71 q=-0.0 size=N/A time=00:22:52.45 bitrate=N/A speed=2.98x    frame=32952 fps= 71 q=-0.0 size=N/A time=00:22:54.37 bitrate=N/A speed=2.98x    frame=32987 fps= 71 q=-0.0 size=N/A time=00:22:55.83 bitrate=N/A speed=2.98x    frame=33026 fps= 71 q=-0.0 size=N/A time=00:22:57.45 bitrate=N/A speed=2.98x    frame=33063 fps= 71 q=-0.0 size=N/A time=00:22:59.00 bitrate=N/A speed=2.98x    frame=33101 fps= 71 q=-0.0 size=N/A time=00:23:00.58 bitrate=N/A speed=2.98x    frame=33138 fps= 71 q=-0.0 size=N/A time=00:23:02.13 bitrate=N/A speed=2.98x    frame=33177 fps= 71 q=-0.0 size=N/A time=00:23:03.75 bitrate=N/A speed=2.98x    frame=33214 fps= 71 q=-0.0 size=N/A time=00:23:05.30 bitrate=N/A speed=2.98x    frame=33251 fps= 71 q=-0.0 size=N/A time=00:23:06.84 bitrate=N/A speed=2.98x    frame=33284 fps= 71 q=-0.0 size=N/A time=00:23:08.22 bitrate=N/A speed=2.98x    frame=33328 fps= 71 q=-0.0 size=N/A time=00:23:10.05 bitrate=N/A speed=2.98x    frame=33365 fps= 71 q=-0.0 size=N/A time=00:23:11.59 bitrate=N/A speed=2.98x    frame=33398 fps= 71 q=-0.0 size=N/A time=00:23:12.97 bitrate=N/A speed=2.98x    frame=33440 fps= 71 q=-0.0 size=N/A time=00:23:14.72 bitrate=N/A speed=2.98x    frame=33475 fps= 71 q=-0.0 size=N/A time=00:23:16.18 bitrate=N/A speed=2.98x    frame=33512 fps= 71 q=-0.0 size=N/A time=00:23:17.72 bitrate=N/A speed=2.98x    frame=33546 fps= 71 q=-0.0 size=N/A time=00:23:19.14 bitrate=N/A speed=2.98x    frame=33587 fps= 71 q=-0.0 size=N/A time=00:23:20.85 bitrate=N/A speed=2.98x    frame=33625 fps= 71 q=-0.0 size=N/A time=00:23:22.44 bitrate=N/A speed=2.98x    frame=33664 fps= 71 q=-0.0 size=N/A time=00:23:24.06 bitrate=N/A speed=2.98x    frame=33700 fps= 71 q=-0.0 size=N/A time=00:23:25.57 bitrate=N/A speed=2.98x    frame=33737 fps= 71 q=-0.0 size=N/A time=00:23:27.11 bitrate=N/A speed=2.98x    frame=33776 fps= 71 q=-0.0 size=N/A time=00:23:28.74 bitrate=N/A speed=2.98x    frame=33808 fps= 71 q=-0.0 size=N/A time=00:23:30.07 bitrate=N/A speed=2.98x    frame=33844 fps= 71 q=-0.0 size=N/A time=00:23:31.57 bitrate=N/A speed=2.98x    frame=33888 fps= 71 q=-0.0 size=N/A time=00:23:33.41 bitrate=N/A speed=2.98x    frame=33926 fps= 71 q=-0.0 size=N/A time=00:23:34.99 bitrate=N/A speed=2.98x    frame=33964 fps= 71 q=-0.0 size=N/A time=00:23:36.58 bitrate=N/A speed=2.98x    frame=34003 fps= 71 q=-0.0 size=N/A time=00:23:38.20 bitrate=N/A speed=2.98x    frame=34039 fps= 71 q=-0.0 size=N/A time=00:23:39.70 bitrate=N/A speed=2.98x    frame=34077 fps= 71 q=-0.0 size=N/A time=00:23:41.29 bitrate=N/A speed=2.98x    frame=34114 fps= 71 q=-0.0 size=N/A time=00:23:42.83 bitrate=N/A speed=2.98x    frame=34150 fps= 71 q=-0.0 size=N/A time=00:23:44.33 bitrate=N/A speed=2.98x    frame=34183 fps= 71 q=-0.0 size=N/A time=00:23:45.71 bitrate=N/A speed=2.98x    frame=34226 fps= 71 q=-0.0 size=N/A time=00:23:47.50 bitrate=N/A speed=2.98x    frame=34263 fps= 71 q=-0.0 size=N/A time=00:23:49.05 bitrate=N/A speed=2.98x    frame=34300 fps= 71 q=-0.0 size=N/A time=00:23:50.59 bitrate=N/A speed=2.98x    frame=34334 fps= 71 q=-0.0 size=N/A time=00:23:52.01 bitrate=N/A speed=2.98x    frame=34369 fps= 71 q=-0.0 size=N/A time=00:23:53.47 bitrate=N/A speed=2.98x    frame=34411 fps= 71 q=-0.0 size=N/A time=00:23:55.22 bitrate=N/A speed=2.98x    frame=34441 fps= 71 q=-0.0 size=N/A time=00:23:56.47 bitrate=N/A speed=2.98x    frame=34484 fps= 71 q=-0.0 size=N/A time=00:23:58.27 bitrate=N/A speed=2.98x    frame=34520 fps= 71 q=-0.0 size=N/A time=00:23:59.77 bitrate=N/A speed=2.98x    frame=34546 fps= 71 q=-0.0 size=N/A time=00:24:00.85 bitrate=N/A speed=2.98x    frame=34594 fps= 71 q=-0.0 size=N/A time=00:24:02.85 bitrate=N/A speed=2.98x    frame=34629 fps= 71 q=-0.0 size=N/A time=00:24:04.31 bitrate=N/A speed=2.98x    frame=34669 fps= 71 q=-0.0 size=N/A time=00:24:05.98 bitrate=N/A speed=2.98x    frame=34705 fps= 71 q=-0.0 size=N/A time=00:24:07.48 bitrate=N/A speed=2.98x    frame=34734 fps= 71 q=-0.0 size=N/A time=00:24:08.69 bitrate=N/A speed=2.98x    frame=34775 fps= 71 q=-0.0 size=N/A time=00:24:10.40 bitrate=N/A speed=2.98x    frame=34812 fps= 71 q=-0.0 size=N/A time=00:24:11.95 bitrate=N/A speed=2.98x    frame=34851 fps= 71 q=-0.0 size=N/A time=00:24:13.57 bitrate=N/A speed=2.98x    frame=34889 fps= 71 q=-0.0 size=N/A time=00:24:15.16 bitrate=N/A speed=2.98x    frame=34925 fps= 71 q=-0.0 size=N/A time=00:24:16.66 bitrate=N/A speed=2.98x    frame=34959 fps= 71 q=-0.0 size=N/A time=00:24:18.08 bitrate=N/A speed=2.98x    frame=35000 fps= 71 q=-0.0 size=N/A time=00:24:19.79 bitrate=N/A speed=2.98x    frame=35039 fps= 71 q=-0.0 size=N/A time=00:24:21.41 bitrate=N/A speed=2.98x    [Parsed_ssim_10 @ 000001b5fb00b400] SSIM Y:0.992529 (21.266289) U:0.993451 (21.838086) V:0.993228 (21.692901) All:0.992799 (21.426212)
[out#0/null @ 000001b5f858f8c0] video:15063KiB audio:274156KiB subtitle:0KiB other streams:0KiB global headers:0KiB muxing overhead: unknown
frame=35056 fps= 71 q=-0.0 Lsize=N/A time=00:24:22.12 bitrate=N/A speed=2.98x    
